<mxfile host="app.diagrams.net" agent="Mozilla/5.0 (Windows NT 10.0; Win64; x64) AppleWebKit/537.36 (KHTML, like Gecko) Chrome/127.0.0.0 Safari/537.36" version="24.7.6" pages="2">
  <diagram id="0CkpgYeCT9LC_Ei_JvBb" name="Page-1">
    <mxGraphModel dx="2049" dy="1080" grid="1" gridSize="10" guides="1" tooltips="1" connect="1" arrows="1" fold="1" page="1" pageScale="1" pageWidth="1169" pageHeight="827" math="0" shadow="0">
      <root>
        <mxCell id="0" />
        <mxCell id="1" parent="0" />
        <mxCell id="OIo9PWVqGmyzMWcSTAOq-97" value="" style="group" vertex="1" connectable="0" parent="1">
          <mxGeometry x="20" y="160" width="841" height="630" as="geometry" />
        </mxCell>
        <mxCell id="OIo9PWVqGmyzMWcSTAOq-58" value="" style="group" vertex="1" connectable="0" parent="OIo9PWVqGmyzMWcSTAOq-97">
          <mxGeometry x="30" width="250" height="160" as="geometry" />
        </mxCell>
        <mxCell id="OIo9PWVqGmyzMWcSTAOq-96" value="" style="group" vertex="1" connectable="0" parent="OIo9PWVqGmyzMWcSTAOq-58">
          <mxGeometry width="190" height="160" as="geometry" />
        </mxCell>
        <mxCell id="OIo9PWVqGmyzMWcSTAOq-15" value="" style="edgeStyle=orthogonalEdgeStyle;rounded=1;orthogonalLoop=1;jettySize=auto;html=1;exitX=0.25;exitY=0;exitDx=0;exitDy=0;labelBackgroundColor=none;strokeColor=#A8201A;fontColor=default;curved=0;endArrow=none;endFill=0;" edge="1" parent="OIo9PWVqGmyzMWcSTAOq-96" source="OIo9PWVqGmyzMWcSTAOq-17" target="OIo9PWVqGmyzMWcSTAOq-18">
          <mxGeometry relative="1" as="geometry" />
        </mxCell>
        <mxCell id="OIo9PWVqGmyzMWcSTAOq-16" style="edgeStyle=orthogonalEdgeStyle;rounded=1;orthogonalLoop=1;jettySize=auto;html=1;entryX=0.5;entryY=1;entryDx=0;entryDy=0;labelBackgroundColor=none;strokeColor=#A8201A;fontColor=default;curved=0;endArrow=none;endFill=0;" edge="1" parent="OIo9PWVqGmyzMWcSTAOq-96" source="OIo9PWVqGmyzMWcSTAOq-17" target="OIo9PWVqGmyzMWcSTAOq-19">
          <mxGeometry relative="1" as="geometry" />
        </mxCell>
        <mxCell id="OIo9PWVqGmyzMWcSTAOq-17" value="&lt;font style=&quot;font-size: 18px;&quot;&gt;Owner&lt;/font&gt;" style="rounded=0;whiteSpace=wrap;html=1;labelBackgroundColor=none;fillColor=#FAE5C7;strokeColor=#0F8B8D;fontColor=#143642;" vertex="1" parent="OIo9PWVqGmyzMWcSTAOq-96">
          <mxGeometry x="25" y="100" width="120" height="60" as="geometry" />
        </mxCell>
        <mxCell id="OIo9PWVqGmyzMWcSTAOq-18" value="&lt;u&gt;&lt;b&gt;&lt;font style=&quot;font-size: 14px;&quot;&gt;SSN&lt;/font&gt;&lt;/b&gt;&lt;/u&gt;" style="ellipse;whiteSpace=wrap;html=1;rounded=0;labelBackgroundColor=none;fillColor=#FAE5C7;strokeColor=#0F8B8D;fontColor=#143642;" vertex="1" parent="OIo9PWVqGmyzMWcSTAOq-96">
          <mxGeometry y="10" width="40" height="40" as="geometry" />
        </mxCell>
        <mxCell id="OIo9PWVqGmyzMWcSTAOq-19" value="&lt;font style=&quot;font-size: 10px;&quot;&gt;Full Name&lt;/font&gt;" style="ellipse;whiteSpace=wrap;html=1;rounded=0;labelBackgroundColor=none;fillColor=#FAE5C7;strokeColor=#0F8B8D;fontColor=#143642;" vertex="1" parent="OIo9PWVqGmyzMWcSTAOq-96">
          <mxGeometry x="60" width="50" height="40" as="geometry" />
        </mxCell>
        <mxCell id="OIo9PWVqGmyzMWcSTAOq-20" value="&lt;span style=&quot;font-size: 10px;&quot;&gt;Account No.&lt;/span&gt;" style="ellipse;whiteSpace=wrap;html=1;rounded=0;labelBackgroundColor=none;fillColor=#FAE5C7;strokeColor=#0F8B8D;fontColor=#143642;" vertex="1" parent="OIo9PWVqGmyzMWcSTAOq-96">
          <mxGeometry x="124" width="66" height="40" as="geometry" />
        </mxCell>
        <mxCell id="OIo9PWVqGmyzMWcSTAOq-21" style="edgeStyle=orthogonalEdgeStyle;rounded=1;orthogonalLoop=1;jettySize=auto;html=1;entryX=0.545;entryY=1;entryDx=0;entryDy=0;entryPerimeter=0;exitX=0.75;exitY=0;exitDx=0;exitDy=0;labelBackgroundColor=none;strokeColor=#A8201A;fontColor=default;curved=0;endArrow=none;endFill=0;" edge="1" parent="OIo9PWVqGmyzMWcSTAOq-96" source="OIo9PWVqGmyzMWcSTAOq-17" target="OIo9PWVqGmyzMWcSTAOq-20">
          <mxGeometry relative="1" as="geometry">
            <Array as="points">
              <mxPoint x="115" y="60" />
              <mxPoint x="160" y="60" />
            </Array>
          </mxGeometry>
        </mxCell>
        <mxCell id="OIo9PWVqGmyzMWcSTAOq-60" value="" style="group" vertex="1" connectable="0" parent="OIo9PWVqGmyzMWcSTAOq-97">
          <mxGeometry x="621" y="330" width="220" height="150" as="geometry" />
        </mxCell>
        <mxCell id="OIo9PWVqGmyzMWcSTAOq-46" value="" style="edgeStyle=orthogonalEdgeStyle;rounded=1;orthogonalLoop=1;jettySize=auto;html=1;exitX=0.25;exitY=0;exitDx=0;exitDy=0;labelBackgroundColor=none;strokeColor=#A8201A;fontColor=default;curved=0;endArrow=none;endFill=0;" edge="1" parent="OIo9PWVqGmyzMWcSTAOq-60" source="OIo9PWVqGmyzMWcSTAOq-48" target="OIo9PWVqGmyzMWcSTAOq-49">
          <mxGeometry relative="1" as="geometry" />
        </mxCell>
        <mxCell id="OIo9PWVqGmyzMWcSTAOq-57" style="edgeStyle=orthogonalEdgeStyle;rounded=1;orthogonalLoop=1;jettySize=auto;html=1;exitX=0.75;exitY=0;exitDx=0;exitDy=0;entryX=0.5;entryY=1;entryDx=0;entryDy=0;labelBackgroundColor=none;strokeColor=#A8201A;fontColor=default;curved=0;endArrow=none;endFill=0;" edge="1" parent="OIo9PWVqGmyzMWcSTAOq-60" source="OIo9PWVqGmyzMWcSTAOq-48" target="OIo9PWVqGmyzMWcSTAOq-53">
          <mxGeometry relative="1" as="geometry" />
        </mxCell>
        <mxCell id="OIo9PWVqGmyzMWcSTAOq-48" value="&lt;font style=&quot;font-size: 18px;&quot;&gt;Tenant&lt;/font&gt;" style="rounded=0;whiteSpace=wrap;html=1;labelBackgroundColor=none;fillColor=#FAE5C7;strokeColor=#0F8B8D;fontColor=#143642;" vertex="1" parent="OIo9PWVqGmyzMWcSTAOq-60">
          <mxGeometry x="30" y="90" width="120" height="60" as="geometry" />
        </mxCell>
        <mxCell id="OIo9PWVqGmyzMWcSTAOq-49" value="&lt;font style=&quot;font-size: 14px;&quot;&gt;&lt;u style=&quot;&quot;&gt;&lt;b&gt;SSN&lt;/b&gt;&lt;/u&gt;&lt;/font&gt;" style="ellipse;whiteSpace=wrap;html=1;rounded=0;labelBackgroundColor=none;fillColor=#FAE5C7;strokeColor=#0F8B8D;fontColor=#143642;" vertex="1" parent="OIo9PWVqGmyzMWcSTAOq-60">
          <mxGeometry width="40" height="40" as="geometry" />
        </mxCell>
        <mxCell id="OIo9PWVqGmyzMWcSTAOq-51" value="&lt;span style=&quot;font-size: 10px;&quot;&gt;Driving License&lt;/span&gt;" style="ellipse;whiteSpace=wrap;html=1;rounded=0;labelBackgroundColor=none;fillColor=#FAE5C7;strokeColor=#0F8B8D;fontColor=#143642;" vertex="1" parent="OIo9PWVqGmyzMWcSTAOq-60">
          <mxGeometry x="60" width="81" height="40" as="geometry" />
        </mxCell>
        <mxCell id="OIo9PWVqGmyzMWcSTAOq-53" value="Phone" style="ellipse;whiteSpace=wrap;html=1;rounded=0;labelBackgroundColor=none;fillColor=#FAE5C7;strokeColor=#0F8B8D;fontColor=#143642;" vertex="1" parent="OIo9PWVqGmyzMWcSTAOq-60">
          <mxGeometry x="154" width="66" height="40" as="geometry" />
        </mxCell>
        <mxCell id="OIo9PWVqGmyzMWcSTAOq-56" style="edgeStyle=orthogonalEdgeStyle;rounded=1;orthogonalLoop=1;jettySize=auto;html=1;exitX=0.5;exitY=0;exitDx=0;exitDy=0;entryX=0.5;entryY=1;entryDx=0;entryDy=0;labelBackgroundColor=none;strokeColor=#A8201A;fontColor=default;curved=0;endArrow=none;endFill=0;" edge="1" parent="OIo9PWVqGmyzMWcSTAOq-60" source="OIo9PWVqGmyzMWcSTAOq-48" target="OIo9PWVqGmyzMWcSTAOq-51">
          <mxGeometry relative="1" as="geometry" />
        </mxCell>
        <mxCell id="OIo9PWVqGmyzMWcSTAOq-61" value="" style="group" vertex="1" connectable="0" parent="OIo9PWVqGmyzMWcSTAOq-97">
          <mxGeometry x="110" y="200" width="590" height="300.43478260869574" as="geometry" />
        </mxCell>
        <mxCell id="OIo9PWVqGmyzMWcSTAOq-25" value="" style="edgeStyle=orthogonalEdgeStyle;rounded=1;orthogonalLoop=1;jettySize=auto;html=1;exitX=0.25;exitY=0;exitDx=0;exitDy=0;labelBackgroundColor=none;strokeColor=#A8201A;fontColor=default;curved=0;endArrow=none;endFill=0;" edge="1" parent="OIo9PWVqGmyzMWcSTAOq-61" source="OIo9PWVqGmyzMWcSTAOq-27" target="OIo9PWVqGmyzMWcSTAOq-28">
          <mxGeometry relative="1" as="geometry" />
        </mxCell>
        <mxCell id="OIo9PWVqGmyzMWcSTAOq-26" style="edgeStyle=orthogonalEdgeStyle;rounded=1;orthogonalLoop=1;jettySize=auto;html=1;entryX=0.5;entryY=1;entryDx=0;entryDy=0;labelBackgroundColor=none;strokeColor=#A8201A;fontColor=default;curved=0;endArrow=none;endFill=0;" edge="1" parent="OIo9PWVqGmyzMWcSTAOq-61" source="OIo9PWVqGmyzMWcSTAOq-27" target="OIo9PWVqGmyzMWcSTAOq-29">
          <mxGeometry relative="1" as="geometry" />
        </mxCell>
        <mxCell id="OIo9PWVqGmyzMWcSTAOq-36" style="edgeStyle=orthogonalEdgeStyle;rounded=1;orthogonalLoop=1;jettySize=auto;html=1;entryX=0;entryY=1;entryDx=0;entryDy=0;labelBackgroundColor=none;strokeColor=#A8201A;fontColor=default;curved=0;endArrow=none;endFill=0;" edge="1" parent="OIo9PWVqGmyzMWcSTAOq-61" source="OIo9PWVqGmyzMWcSTAOq-27" target="OIo9PWVqGmyzMWcSTAOq-34">
          <mxGeometry relative="1" as="geometry">
            <Array as="points">
              <mxPoint x="213" y="250" />
              <mxPoint x="213" y="240" />
              <mxPoint x="278" y="240" />
            </Array>
          </mxGeometry>
        </mxCell>
        <mxCell id="OIo9PWVqGmyzMWcSTAOq-27" value="&lt;font style=&quot;font-size: 18px;&quot;&gt;Car&lt;/font&gt;" style="rounded=0;whiteSpace=wrap;html=1;labelBackgroundColor=none;fillColor=#FAE5C7;strokeColor=#0F8B8D;fontColor=#143642;" vertex="1" parent="OIo9PWVqGmyzMWcSTAOq-61">
          <mxGeometry x="38" y="220" width="120" height="60" as="geometry" />
        </mxCell>
        <mxCell id="OIo9PWVqGmyzMWcSTAOq-28" value="&lt;u&gt;&lt;b&gt;&lt;font style=&quot;font-size: 14px;&quot;&gt;ID&lt;/font&gt;&lt;/b&gt;&lt;/u&gt;" style="ellipse;whiteSpace=wrap;html=1;rounded=0;labelBackgroundColor=none;fillColor=#FAE5C7;strokeColor=#0F8B8D;fontColor=#143642;" vertex="1" parent="OIo9PWVqGmyzMWcSTAOq-61">
          <mxGeometry x="13" y="130" width="40" height="40" as="geometry" />
        </mxCell>
        <mxCell id="OIo9PWVqGmyzMWcSTAOq-44" style="edgeStyle=orthogonalEdgeStyle;rounded=1;orthogonalLoop=1;jettySize=auto;html=1;exitX=1;exitY=0;exitDx=0;exitDy=0;entryX=0.5;entryY=1;entryDx=0;entryDy=0;labelBackgroundColor=none;strokeColor=#A8201A;fontColor=default;curved=0;endArrow=none;endFill=0;" edge="1" parent="OIo9PWVqGmyzMWcSTAOq-61" source="OIo9PWVqGmyzMWcSTAOq-29" target="OIo9PWVqGmyzMWcSTAOq-41">
          <mxGeometry relative="1" as="geometry" />
        </mxCell>
        <mxCell id="OIo9PWVqGmyzMWcSTAOq-45" style="edgeStyle=orthogonalEdgeStyle;rounded=1;orthogonalLoop=1;jettySize=auto;html=1;exitX=0.5;exitY=0;exitDx=0;exitDy=0;labelBackgroundColor=none;strokeColor=#A8201A;fontColor=default;curved=0;endArrow=none;endFill=0;" edge="1" parent="OIo9PWVqGmyzMWcSTAOq-61" source="OIo9PWVqGmyzMWcSTAOq-29" target="OIo9PWVqGmyzMWcSTAOq-42">
          <mxGeometry relative="1" as="geometry" />
        </mxCell>
        <mxCell id="OIo9PWVqGmyzMWcSTAOq-29" value="&lt;font style=&quot;font-size: 10px;&quot;&gt;Model&lt;/font&gt;" style="ellipse;whiteSpace=wrap;html=1;rounded=0;labelBackgroundColor=none;fillColor=#FAE5C7;strokeColor=#0F8B8D;fontColor=#143642;" vertex="1" parent="OIo9PWVqGmyzMWcSTAOq-61">
          <mxGeometry x="73" y="120" width="50" height="40" as="geometry" />
        </mxCell>
        <mxCell id="OIo9PWVqGmyzMWcSTAOq-30" value="&lt;span style=&quot;font-size: 10px;&quot;&gt;License Img&lt;/span&gt;" style="ellipse;whiteSpace=wrap;html=1;rounded=0;labelBackgroundColor=none;fillColor=#FAE5C7;strokeColor=#0F8B8D;fontColor=#143642;" vertex="1" parent="OIo9PWVqGmyzMWcSTAOq-61">
          <mxGeometry x="137" y="120" width="66" height="40" as="geometry" />
        </mxCell>
        <mxCell id="OIo9PWVqGmyzMWcSTAOq-31" style="edgeStyle=orthogonalEdgeStyle;rounded=1;orthogonalLoop=1;jettySize=auto;html=1;entryX=0.545;entryY=1;entryDx=0;entryDy=0;entryPerimeter=0;exitX=0.75;exitY=0;exitDx=0;exitDy=0;labelBackgroundColor=none;strokeColor=#A8201A;fontColor=default;curved=0;endArrow=none;endFill=0;" edge="1" parent="OIo9PWVqGmyzMWcSTAOq-61" source="OIo9PWVqGmyzMWcSTAOq-27" target="OIo9PWVqGmyzMWcSTAOq-30">
          <mxGeometry relative="1" as="geometry">
            <Array as="points">
              <mxPoint x="128" y="180" />
              <mxPoint x="173" y="180" />
            </Array>
          </mxGeometry>
        </mxCell>
        <mxCell id="OIo9PWVqGmyzMWcSTAOq-32" value="Rent Value" style="ellipse;whiteSpace=wrap;html=1;rounded=0;labelBackgroundColor=none;fillColor=#FAE5C7;strokeColor=#0F8B8D;fontColor=#143642;" vertex="1" parent="OIo9PWVqGmyzMWcSTAOq-61">
          <mxGeometry x="197" y="150" width="66" height="40" as="geometry" />
        </mxCell>
        <mxCell id="OIo9PWVqGmyzMWcSTAOq-33" style="edgeStyle=orthogonalEdgeStyle;rounded=1;orthogonalLoop=1;jettySize=auto;html=1;exitX=1;exitY=0.25;exitDx=0;exitDy=0;labelBackgroundColor=none;strokeColor=#A8201A;fontColor=default;curved=0;endArrow=none;endFill=0;" edge="1" parent="OIo9PWVqGmyzMWcSTAOq-61" source="OIo9PWVqGmyzMWcSTAOq-27" target="OIo9PWVqGmyzMWcSTAOq-32">
          <mxGeometry relative="1" as="geometry" />
        </mxCell>
        <mxCell id="OIo9PWVqGmyzMWcSTAOq-34" value="Status&lt;span style=&quot;color: rgba(0, 0, 0, 0); font-family: monospace; font-size: 0px; text-align: start; text-wrap: nowrap;&quot;&gt;%3CmxGraphModel%3E%3Croot%3E%3CmxCell%20id%3D%220%22%2F%3E%3CmxCell%20id%3D%221%22%20parent%3D%220%22%2F%3E%3CmxCell%20id%3D%222%22%20value%3D%22Rent%20Value%22%20style%3D%22ellipse%3BwhiteSpace%3Dwrap%3Bhtml%3D1%3Brounded%3D0%3B%22%20vertex%3D%221%22%20parent%3D%221%22%3E%3CmxGeometry%20x%3D%22379%22%20y%3D%22440%22%20width%3D%2266%22%20height%3D%2240%22%20as%3D%22geometry%22%2F%3E%3C%2FmxCell%3E%3C%2Froot%3E%3C%2FmxGraphModel%3E&lt;/span&gt;" style="ellipse;whiteSpace=wrap;html=1;rounded=0;labelBackgroundColor=none;fillColor=#FAE5C7;strokeColor=#0F8B8D;fontColor=#143642;" vertex="1" parent="OIo9PWVqGmyzMWcSTAOq-61">
          <mxGeometry x="268" y="200" width="66" height="40" as="geometry" />
        </mxCell>
        <mxCell id="OIo9PWVqGmyzMWcSTAOq-40" value="Brand" style="ellipse;whiteSpace=wrap;html=1;rounded=0;labelBackgroundColor=none;fillColor=#FAE5C7;strokeColor=#0F8B8D;fontColor=#143642;" vertex="1" parent="OIo9PWVqGmyzMWcSTAOq-61">
          <mxGeometry y="40" width="66" height="40" as="geometry" />
        </mxCell>
        <mxCell id="OIo9PWVqGmyzMWcSTAOq-41" value="&lt;font style=&quot;font-size: 10px;&quot;&gt;Model Name&lt;/font&gt;" style="ellipse;whiteSpace=wrap;html=1;rounded=0;labelBackgroundColor=none;fillColor=#FAE5C7;strokeColor=#0F8B8D;fontColor=#143642;" vertex="1" parent="OIo9PWVqGmyzMWcSTAOq-61">
          <mxGeometry x="123" y="40" width="66" height="40" as="geometry" />
        </mxCell>
        <mxCell id="OIo9PWVqGmyzMWcSTAOq-42" value="&lt;font style=&quot;font-size: 10px;&quot;&gt;Model Year&lt;/font&gt;" style="ellipse;whiteSpace=wrap;html=1;rounded=0;labelBackgroundColor=none;fillColor=#FAE5C7;strokeColor=#0F8B8D;fontColor=#143642;" vertex="1" parent="OIo9PWVqGmyzMWcSTAOq-61">
          <mxGeometry x="65" width="66" height="40" as="geometry" />
        </mxCell>
        <mxCell id="OIo9PWVqGmyzMWcSTAOq-43" style="edgeStyle=orthogonalEdgeStyle;rounded=1;orthogonalLoop=1;jettySize=auto;html=1;exitX=0;exitY=0;exitDx=0;exitDy=0;entryX=0.5;entryY=1;entryDx=0;entryDy=0;labelBackgroundColor=none;strokeColor=#A8201A;fontColor=default;curved=0;endArrow=none;endFill=0;" edge="1" parent="OIo9PWVqGmyzMWcSTAOq-61" source="OIo9PWVqGmyzMWcSTAOq-29" target="OIo9PWVqGmyzMWcSTAOq-40">
          <mxGeometry relative="1" as="geometry">
            <Array as="points">
              <mxPoint x="81" y="110" />
              <mxPoint x="33" y="110" />
            </Array>
          </mxGeometry>
        </mxCell>
        <mxCell id="OIo9PWVqGmyzMWcSTAOq-84" value="&lt;b&gt;M&lt;/b&gt;" style="edgeLabel;html=1;align=center;verticalAlign=middle;resizable=0;points=[];strokeColor=#0F8B8D;fontColor=#143642;fillColor=#FAE5C7;" vertex="1" connectable="0" parent="OIo9PWVqGmyzMWcSTAOq-61">
          <mxGeometry x="597" y="301.43478260869574" as="geometry">
            <mxPoint x="-508" y="-12" as="offset" />
          </mxGeometry>
        </mxCell>
        <mxCell id="OIo9PWVqGmyzMWcSTAOq-62" value="&lt;span style=&quot;line-height: 107%;&quot;&gt;&lt;font style=&quot;font-size: 14px;&quot;&gt;provide&amp;nbsp;&lt;/font&gt;&lt;/span&gt;" style="rhombus;whiteSpace=wrap;html=1;strokeColor=#0F8B8D;fontColor=#143642;fillColor=#FAE5C7;" vertex="1" parent="OIo9PWVqGmyzMWcSTAOq-97">
          <mxGeometry x="370" y="80" width="80" height="80" as="geometry" />
        </mxCell>
        <mxCell id="OIo9PWVqGmyzMWcSTAOq-63" style="rounded=1;orthogonalLoop=1;jettySize=auto;html=1;exitX=1;exitY=0.75;exitDx=0;exitDy=0;strokeColor=default;fontColor=#143642;fillColor=#FAE5C7;edgeStyle=orthogonalEdgeStyle;curved=0;endArrow=none;endFill=0;" edge="1" parent="OIo9PWVqGmyzMWcSTAOq-97" source="OIo9PWVqGmyzMWcSTAOq-17" target="OIo9PWVqGmyzMWcSTAOq-62">
          <mxGeometry relative="1" as="geometry" />
        </mxCell>
        <mxCell id="OIo9PWVqGmyzMWcSTAOq-71" value="&lt;b&gt;M&lt;/b&gt;" style="edgeLabel;html=1;align=center;verticalAlign=middle;resizable=0;points=[];strokeColor=#0F8B8D;fontColor=#143642;fillColor=#FAE5C7;" vertex="1" connectable="0" parent="OIo9PWVqGmyzMWcSTAOq-63">
          <mxGeometry x="-0.861" y="-3" relative="1" as="geometry">
            <mxPoint x="-5" y="6" as="offset" />
          </mxGeometry>
        </mxCell>
        <mxCell id="OIo9PWVqGmyzMWcSTAOq-68" style="edgeStyle=orthogonalEdgeStyle;rounded=1;orthogonalLoop=1;jettySize=auto;html=1;exitX=1;exitY=0.5;exitDx=0;exitDy=0;entryX=-0.009;entryY=0.437;entryDx=0;entryDy=0;entryPerimeter=0;strokeColor=#000000;fontColor=#143642;fillColor=#FAE5C7;endArrow=none;endFill=0;curved=0;" edge="1" parent="OIo9PWVqGmyzMWcSTAOq-97" source="OIo9PWVqGmyzMWcSTAOq-62" target="OIo9PWVqGmyzMWcSTAOq-1">
          <mxGeometry relative="1" as="geometry" />
        </mxCell>
        <mxCell id="OIo9PWVqGmyzMWcSTAOq-72" value="&lt;b&gt;1&lt;/b&gt;" style="edgeLabel;html=1;align=center;verticalAlign=middle;resizable=0;points=[];strokeColor=#0F8B8D;fontColor=#143642;fillColor=#FAE5C7;" vertex="1" connectable="0" parent="OIo9PWVqGmyzMWcSTAOq-68">
          <mxGeometry x="0.8895" y="2" relative="1" as="geometry">
            <mxPoint x="-1" y="-7" as="offset" />
          </mxGeometry>
        </mxCell>
        <mxCell id="OIo9PWVqGmyzMWcSTAOq-10" style="edgeStyle=orthogonalEdgeStyle;rounded=1;orthogonalLoop=1;jettySize=auto;html=1;entryX=0.5;entryY=1;entryDx=0;entryDy=0;labelBackgroundColor=none;strokeColor=#A8201A;fontColor=default;endArrow=none;endFill=0;curved=0;" edge="1" parent="OIo9PWVqGmyzMWcSTAOq-97" source="OIo9PWVqGmyzMWcSTAOq-1" target="OIo9PWVqGmyzMWcSTAOq-8">
          <mxGeometry relative="1" as="geometry" />
        </mxCell>
        <mxCell id="OIo9PWVqGmyzMWcSTAOq-1" value="&lt;font style=&quot;font-size: 18px;&quot;&gt;Office&lt;/font&gt;" style="rounded=0;whiteSpace=wrap;html=1;labelBackgroundColor=none;fillColor=#FAE5C7;strokeColor=#0F8B8D;fontColor=#143642;" vertex="1" parent="OIo9PWVqGmyzMWcSTAOq-97">
          <mxGeometry x="640" y="100" width="120" height="60" as="geometry" />
        </mxCell>
        <mxCell id="OIo9PWVqGmyzMWcSTAOq-4" value="&lt;u&gt;&lt;font style=&quot;font-size: 14px;&quot;&gt;&lt;b&gt;ID&lt;/b&gt;&lt;/font&gt;&lt;/u&gt;" style="ellipse;whiteSpace=wrap;html=1;rounded=0;labelBackgroundColor=none;fillColor=#FAE5C7;strokeColor=#0F8B8D;fontColor=#143642;" vertex="1" parent="OIo9PWVqGmyzMWcSTAOq-97">
          <mxGeometry x="646" y="40" width="40" height="40" as="geometry" />
        </mxCell>
        <mxCell id="OIo9PWVqGmyzMWcSTAOq-8" value="Address" style="ellipse;whiteSpace=wrap;html=1;rounded=0;labelBackgroundColor=none;fillColor=#FAE5C7;strokeColor=#0F8B8D;fontColor=#143642;" vertex="1" parent="OIo9PWVqGmyzMWcSTAOq-97">
          <mxGeometry x="706" y="30" width="50" height="40" as="geometry" />
        </mxCell>
        <mxCell id="OIo9PWVqGmyzMWcSTAOq-11" value="&lt;font style=&quot;font-size: 10px;&quot;&gt;Contact No.&lt;/font&gt;" style="ellipse;whiteSpace=wrap;html=1;rounded=0;labelBackgroundColor=none;fillColor=#FAE5C7;strokeColor=#0F8B8D;fontColor=#143642;" vertex="1" parent="OIo9PWVqGmyzMWcSTAOq-97">
          <mxGeometry x="760" y="30" width="66" height="40" as="geometry" />
        </mxCell>
        <mxCell id="OIo9PWVqGmyzMWcSTAOq-13" style="edgeStyle=orthogonalEdgeStyle;rounded=1;orthogonalLoop=1;jettySize=auto;html=1;entryX=0.545;entryY=1;entryDx=0;entryDy=0;entryPerimeter=0;labelBackgroundColor=none;strokeColor=#A8201A;fontColor=default;endArrow=none;endFill=0;curved=0;" edge="1" parent="OIo9PWVqGmyzMWcSTAOq-97" source="OIo9PWVqGmyzMWcSTAOq-1" target="OIo9PWVqGmyzMWcSTAOq-11">
          <mxGeometry relative="1" as="geometry">
            <Array as="points">
              <mxPoint x="716" y="90" />
              <mxPoint x="796" y="90" />
            </Array>
          </mxGeometry>
        </mxCell>
        <mxCell id="OIo9PWVqGmyzMWcSTAOq-69" style="edgeStyle=orthogonalEdgeStyle;rounded=1;orthogonalLoop=1;jettySize=auto;html=1;exitX=0.25;exitY=0;exitDx=0;exitDy=0;entryX=0.5;entryY=1;entryDx=0;entryDy=0;strokeColor=#A8201A;fontColor=#143642;fillColor=#FAE5C7;endArrow=none;endFill=0;curved=0;" edge="1" parent="OIo9PWVqGmyzMWcSTAOq-97" source="OIo9PWVqGmyzMWcSTAOq-1" target="OIo9PWVqGmyzMWcSTAOq-4">
          <mxGeometry relative="1" as="geometry" />
        </mxCell>
        <mxCell id="OIo9PWVqGmyzMWcSTAOq-76" style="edgeStyle=orthogonalEdgeStyle;rounded=1;orthogonalLoop=1;jettySize=auto;html=1;exitX=0.5;exitY=1;exitDx=0;exitDy=0;entryX=0;entryY=0.5;entryDx=0;entryDy=0;strokeColor=#000000;fontColor=#143642;fillColor=#FAE5C7;curved=0;endArrow=none;endFill=0;shape=link;" edge="1" parent="OIo9PWVqGmyzMWcSTAOq-97" source="OIo9PWVqGmyzMWcSTAOq-74" target="OIo9PWVqGmyzMWcSTAOq-27">
          <mxGeometry relative="1" as="geometry" />
        </mxCell>
        <mxCell id="OIo9PWVqGmyzMWcSTAOq-77" value="&lt;b&gt;M&lt;/b&gt;" style="edgeLabel;html=1;align=center;verticalAlign=middle;resizable=0;points=[];strokeColor=#0F8B8D;fontColor=#143642;fillColor=#FAE5C7;" vertex="1" connectable="0" parent="OIo9PWVqGmyzMWcSTAOq-76">
          <mxGeometry x="0.7562" relative="1" as="geometry">
            <mxPoint x="7" y="-11" as="offset" />
          </mxGeometry>
        </mxCell>
        <mxCell id="OIo9PWVqGmyzMWcSTAOq-74" value="&lt;font style=&quot;font-size: 14px;&quot;&gt;Rent&lt;/font&gt;" style="rhombus;whiteSpace=wrap;html=1;strokeColor=#0F8B8D;fontColor=#143642;fillColor=#FAE5C7;" vertex="1" parent="OIo9PWVqGmyzMWcSTAOq-97">
          <mxGeometry y="320" width="80" height="80" as="geometry" />
        </mxCell>
        <mxCell id="OIo9PWVqGmyzMWcSTAOq-75" style="edgeStyle=orthogonalEdgeStyle;rounded=1;orthogonalLoop=1;jettySize=auto;html=1;exitX=0.25;exitY=1;exitDx=0;exitDy=0;entryX=0.5;entryY=0;entryDx=0;entryDy=0;strokeColor=#000000;fontColor=#143642;fillColor=#FAE5C7;curved=0;endArrow=none;endFill=0;" edge="1" parent="OIo9PWVqGmyzMWcSTAOq-97" source="OIo9PWVqGmyzMWcSTAOq-17" target="OIo9PWVqGmyzMWcSTAOq-74">
          <mxGeometry relative="1" as="geometry" />
        </mxCell>
        <mxCell id="OIo9PWVqGmyzMWcSTAOq-78" value="&lt;b&gt;1&lt;/b&gt;" style="edgeLabel;html=1;align=center;verticalAlign=middle;resizable=0;points=[];strokeColor=#0F8B8D;fontColor=#143642;fillColor=#FAE5C7;" vertex="1" connectable="0" parent="OIo9PWVqGmyzMWcSTAOq-75">
          <mxGeometry x="-0.8519" y="2" relative="1" as="geometry">
            <mxPoint x="-10" y="-4" as="offset" />
          </mxGeometry>
        </mxCell>
        <mxCell id="OIo9PWVqGmyzMWcSTAOq-92" style="edgeStyle=orthogonalEdgeStyle;rounded=1;orthogonalLoop=1;jettySize=auto;html=1;exitX=0;exitY=1;exitDx=0;exitDy=0;entryX=0.5;entryY=0;entryDx=0;entryDy=0;strokeColor=#A8201A;fontColor=#143642;fillColor=#FAE5C7;curved=0;endArrow=none;endFill=0;" edge="1" parent="OIo9PWVqGmyzMWcSTAOq-97" source="OIo9PWVqGmyzMWcSTAOq-80" target="OIo9PWVqGmyzMWcSTAOq-90">
          <mxGeometry relative="1" as="geometry">
            <Array as="points">
              <mxPoint x="501" y="570" />
              <mxPoint x="447" y="570" />
            </Array>
          </mxGeometry>
        </mxCell>
        <mxCell id="OIo9PWVqGmyzMWcSTAOq-93" style="edgeStyle=orthogonalEdgeStyle;rounded=1;orthogonalLoop=1;jettySize=auto;html=1;exitX=0.5;exitY=1;exitDx=0;exitDy=0;entryX=0.5;entryY=0;entryDx=0;entryDy=0;strokeColor=#A8201A;fontColor=#143642;fillColor=#FAE5C7;curved=0;endArrow=none;endFill=0;" edge="1" parent="OIo9PWVqGmyzMWcSTAOq-97" source="OIo9PWVqGmyzMWcSTAOq-80" target="OIo9PWVqGmyzMWcSTAOq-89">
          <mxGeometry relative="1" as="geometry" />
        </mxCell>
        <mxCell id="OIo9PWVqGmyzMWcSTAOq-94" style="edgeStyle=orthogonalEdgeStyle;rounded=1;orthogonalLoop=1;jettySize=auto;html=1;exitX=1;exitY=1;exitDx=0;exitDy=0;entryX=0.5;entryY=0;entryDx=0;entryDy=0;strokeColor=#A8201A;fontColor=#143642;fillColor=#FAE5C7;curved=0;endArrow=none;endFill=0;" edge="1" parent="OIo9PWVqGmyzMWcSTAOq-97" source="OIo9PWVqGmyzMWcSTAOq-80" target="OIo9PWVqGmyzMWcSTAOq-88">
          <mxGeometry relative="1" as="geometry">
            <Array as="points">
              <mxPoint x="544" y="570" />
              <mxPoint x="598" y="570" />
            </Array>
          </mxGeometry>
        </mxCell>
        <mxCell id="OIo9PWVqGmyzMWcSTAOq-80" value="Ordered by" style="rhombus;whiteSpace=wrap;html=1;strokeColor=#0F8B8D;fontColor=#143642;fillColor=#FAE5C7;" vertex="1" parent="OIo9PWVqGmyzMWcSTAOq-97">
          <mxGeometry x="480" y="490" width="85" height="85" as="geometry" />
        </mxCell>
        <mxCell id="OIo9PWVqGmyzMWcSTAOq-81" style="edgeStyle=orthogonalEdgeStyle;rounded=1;orthogonalLoop=1;jettySize=auto;html=1;exitX=0.5;exitY=1;exitDx=0;exitDy=0;entryX=0;entryY=0.5;entryDx=0;entryDy=0;strokeColor=#050101;fontColor=#143642;fillColor=#FAE5C7;curved=0;endArrow=none;endFill=0;" edge="1" parent="OIo9PWVqGmyzMWcSTAOq-97" source="OIo9PWVqGmyzMWcSTAOq-27" target="OIo9PWVqGmyzMWcSTAOq-80">
          <mxGeometry relative="1" as="geometry" />
        </mxCell>
        <mxCell id="OIo9PWVqGmyzMWcSTAOq-82" style="edgeStyle=orthogonalEdgeStyle;rounded=1;orthogonalLoop=1;jettySize=auto;html=1;exitX=0.5;exitY=1;exitDx=0;exitDy=0;entryX=1;entryY=0.5;entryDx=0;entryDy=0;strokeColor=#050101;fontColor=#143642;fillColor=#FAE5C7;curved=0;endArrow=none;endFill=0;" edge="1" parent="OIo9PWVqGmyzMWcSTAOq-97" source="OIo9PWVqGmyzMWcSTAOq-48" target="OIo9PWVqGmyzMWcSTAOq-80">
          <mxGeometry relative="1" as="geometry" />
        </mxCell>
        <mxCell id="OIo9PWVqGmyzMWcSTAOq-83" value="&lt;b&gt;M&lt;/b&gt;" style="edgeLabel;html=1;align=center;verticalAlign=middle;resizable=0;points=[];strokeColor=#0F8B8D;fontColor=#143642;fillColor=#FAE5C7;" vertex="1" connectable="0" parent="OIo9PWVqGmyzMWcSTAOq-82">
          <mxGeometry x="-0.8909" y="1" relative="1" as="geometry">
            <mxPoint x="-12" as="offset" />
          </mxGeometry>
        </mxCell>
        <mxCell id="OIo9PWVqGmyzMWcSTAOq-90" value="Payment method" style="ellipse;whiteSpace=wrap;html=1;rounded=0;labelBackgroundColor=none;fillColor=#FAE5C7;strokeColor=#0F8B8D;fontColor=#143642;" vertex="1" parent="OIo9PWVqGmyzMWcSTAOq-97">
          <mxGeometry x="414" y="590" width="66" height="40" as="geometry" />
        </mxCell>
        <mxCell id="OIo9PWVqGmyzMWcSTAOq-89" value="Duration" style="ellipse;whiteSpace=wrap;html=1;rounded=0;labelBackgroundColor=none;fillColor=#FAE5C7;strokeColor=#0F8B8D;fontColor=#143642;" vertex="1" parent="OIo9PWVqGmyzMWcSTAOq-97">
          <mxGeometry x="489.5" y="590" width="66" height="40" as="geometry" />
        </mxCell>
        <mxCell id="OIo9PWVqGmyzMWcSTAOq-88" value="Start d&lt;span style=&quot;color: rgba(0, 0, 0, 0); font-family: monospace; font-size: 0px; text-align: start; text-wrap: nowrap;&quot;&gt;%3CmxGraphModel%3E%3Croot%3E%3CmxCell%20id%3D%220%22%2F%3E%3CmxCell%20id%3D%221%22%20parent%3D%220%22%2F%3E%3CmxCell%20id%3D%222%22%20value%3D%22Status%26lt%3Bspan%20style%3D%26quot%3Bcolor%3A%20rgba(0%2C%200%2C%200%2C%200)%3B%20font-family%3A%20monospace%3B%20font-size%3A%200px%3B%20text-align%3A%20start%3B%20text-wrap%3A%20nowrap%3B%26quot%3B%26gt%3B%253CmxGraphModel%253E%253Croot%253E%253CmxCell%2520id%253D%25220%2522%252F%253E%253CmxCell%2520id%253D%25221%2522%2520parent%253D%25220%2522%252F%253E%253CmxCell%2520id%253D%25222%2522%2520value%253D%2522Rent%2520Value%2522%2520style%253D%2522ellipse%253BwhiteSpace%253Dwrap%253Bhtml%253D1%253Brounded%253D0%253B%2522%2520vertex%253D%25221%2522%2520parent%253D%25221%2522%253E%253CmxGeometry%2520x%253D%2522379%2522%2520y%253D%2522440%2522%2520width%253D%252266%2522%2520height%253D%252240%2522%2520as%253D%2522geometry%2522%252F%253E%253C%252FmxCell%253E%253C%252Froot%253E%253C%252FmxGraphModel%253E%26lt%3B%2Fspan%26gt%3B%22%20style%3D%22ellipse%3BwhiteSpace%3Dwrap%3Bhtml%3D1%3Brounded%3D0%3BlabelBackgroundColor%3Dnone%3BfillColor%3D%23FAE5C7%3BstrokeColor%3D%230F8B8D%3BfontColor%3D%23143642%3B%22%20vertex%3D%221%22%20parent%3D%221%22%3E%3CmxGeometry%20x%3D%22398%22%20y%3D%22560%22%20width%3D%2266%22%20height%3D%2240%22%20as%3D%22geometry%22%2F%3E%3C%2FmxCell%3E%3C%2Froot%3E%3C%2FmxGraphModel%3E&lt;/span&gt;ate" style="ellipse;whiteSpace=wrap;html=1;rounded=0;labelBackgroundColor=none;fillColor=#FAE5C7;strokeColor=#0F8B8D;fontColor=#143642;" vertex="1" parent="OIo9PWVqGmyzMWcSTAOq-97">
          <mxGeometry x="565" y="590" width="66" height="40" as="geometry" />
        </mxCell>
      </root>
    </mxGraphModel>
  </diagram>
  <diagram name="Day01_Q1" id="6wFqTmkmnKEI-5kKPCnc">
    <mxGraphModel dx="3776" dy="1375" grid="1" gridSize="10" guides="1" tooltips="1" connect="1" arrows="1" fold="1" page="1" pageScale="1" pageWidth="1169" pageHeight="827" math="0" shadow="0">
      <root>
        <mxCell id="ZMFAi1i5mtqEm44oEGKB-0" />
        <mxCell id="ZMFAi1i5mtqEm44oEGKB-1" parent="ZMFAi1i5mtqEm44oEGKB-0" />
        <mxCell id="wksBsVy8olKyLcgHj2rm-86" value="Owner" style="shape=table;startSize=30;container=1;collapsible=1;childLayout=tableLayout;fixedRows=1;rowLines=0;fontStyle=1;align=center;resizeLast=1;html=1;strokeColor=#0F8B8D;fontColor=#143642;fillColor=#FAE5C7;" vertex="1" parent="ZMFAi1i5mtqEm44oEGKB-1">
          <mxGeometry x="140" y="160" width="180" height="150" as="geometry" />
        </mxCell>
        <mxCell id="wksBsVy8olKyLcgHj2rm-87" value="" style="shape=tableRow;horizontal=0;startSize=0;swimlaneHead=0;swimlaneBody=0;fillColor=none;collapsible=0;dropTarget=0;points=[[0,0.5],[1,0.5]];portConstraint=eastwest;top=0;left=0;right=0;bottom=1;strokeColor=#0F8B8D;fontColor=#143642;" vertex="1" parent="wksBsVy8olKyLcgHj2rm-86">
          <mxGeometry y="30" width="180" height="30" as="geometry" />
        </mxCell>
        <mxCell id="wksBsVy8olKyLcgHj2rm-88" value="PK" style="shape=partialRectangle;connectable=0;fillColor=none;top=0;left=0;bottom=0;right=0;fontStyle=1;overflow=hidden;whiteSpace=wrap;html=1;strokeColor=#0F8B8D;fontColor=#143642;" vertex="1" parent="wksBsVy8olKyLcgHj2rm-87">
          <mxGeometry width="30" height="30" as="geometry">
            <mxRectangle width="30" height="30" as="alternateBounds" />
          </mxGeometry>
        </mxCell>
        <mxCell id="wksBsVy8olKyLcgHj2rm-89" value="SSN" style="shape=partialRectangle;connectable=0;fillColor=none;top=0;left=0;bottom=0;right=0;align=left;spacingLeft=6;fontStyle=5;overflow=hidden;whiteSpace=wrap;html=1;strokeColor=#0F8B8D;fontColor=#143642;" vertex="1" parent="wksBsVy8olKyLcgHj2rm-87">
          <mxGeometry x="30" width="150" height="30" as="geometry">
            <mxRectangle width="150" height="30" as="alternateBounds" />
          </mxGeometry>
        </mxCell>
        <mxCell id="wksBsVy8olKyLcgHj2rm-90" value="" style="shape=tableRow;horizontal=0;startSize=0;swimlaneHead=0;swimlaneBody=0;fillColor=none;collapsible=0;dropTarget=0;points=[[0,0.5],[1,0.5]];portConstraint=eastwest;top=0;left=0;right=0;bottom=0;strokeColor=#0F8B8D;fontColor=#143642;" vertex="1" parent="wksBsVy8olKyLcgHj2rm-86">
          <mxGeometry y="60" width="180" height="30" as="geometry" />
        </mxCell>
        <mxCell id="wksBsVy8olKyLcgHj2rm-91" value="" style="shape=partialRectangle;connectable=0;fillColor=none;top=0;left=0;bottom=0;right=0;editable=1;overflow=hidden;whiteSpace=wrap;html=1;strokeColor=#0F8B8D;fontColor=#143642;" vertex="1" parent="wksBsVy8olKyLcgHj2rm-90">
          <mxGeometry width="30" height="30" as="geometry">
            <mxRectangle width="30" height="30" as="alternateBounds" />
          </mxGeometry>
        </mxCell>
        <mxCell id="wksBsVy8olKyLcgHj2rm-92" value="Full Name" style="shape=partialRectangle;connectable=0;fillColor=none;top=0;left=0;bottom=0;right=0;align=left;spacingLeft=6;overflow=hidden;whiteSpace=wrap;html=1;strokeColor=#0F8B8D;fontColor=#143642;" vertex="1" parent="wksBsVy8olKyLcgHj2rm-90">
          <mxGeometry x="30" width="150" height="30" as="geometry">
            <mxRectangle width="150" height="30" as="alternateBounds" />
          </mxGeometry>
        </mxCell>
        <mxCell id="wksBsVy8olKyLcgHj2rm-93" value="" style="shape=tableRow;horizontal=0;startSize=0;swimlaneHead=0;swimlaneBody=0;fillColor=none;collapsible=0;dropTarget=0;points=[[0,0.5],[1,0.5]];portConstraint=eastwest;top=0;left=0;right=0;bottom=0;strokeColor=#0F8B8D;fontColor=#143642;" vertex="1" parent="wksBsVy8olKyLcgHj2rm-86">
          <mxGeometry y="90" width="180" height="30" as="geometry" />
        </mxCell>
        <mxCell id="wksBsVy8olKyLcgHj2rm-94" value="" style="shape=partialRectangle;connectable=0;fillColor=none;top=0;left=0;bottom=0;right=0;editable=1;overflow=hidden;whiteSpace=wrap;html=1;strokeColor=#0F8B8D;fontColor=#143642;" vertex="1" parent="wksBsVy8olKyLcgHj2rm-93">
          <mxGeometry width="30" height="30" as="geometry">
            <mxRectangle width="30" height="30" as="alternateBounds" />
          </mxGeometry>
        </mxCell>
        <mxCell id="wksBsVy8olKyLcgHj2rm-95" value="Account No." style="shape=partialRectangle;connectable=0;fillColor=none;top=0;left=0;bottom=0;right=0;align=left;spacingLeft=6;overflow=hidden;whiteSpace=wrap;html=1;strokeColor=#0F8B8D;fontColor=#143642;" vertex="1" parent="wksBsVy8olKyLcgHj2rm-93">
          <mxGeometry x="30" width="150" height="30" as="geometry">
            <mxRectangle width="150" height="30" as="alternateBounds" />
          </mxGeometry>
        </mxCell>
        <mxCell id="wksBsVy8olKyLcgHj2rm-250" style="shape=tableRow;horizontal=0;startSize=0;swimlaneHead=0;swimlaneBody=0;fillColor=none;collapsible=0;dropTarget=0;points=[[0,0.5],[1,0.5]];portConstraint=eastwest;top=0;left=0;right=0;bottom=0;strokeColor=#0F8B8D;fontColor=#143642;" vertex="1" parent="wksBsVy8olKyLcgHj2rm-86">
          <mxGeometry y="120" width="180" height="30" as="geometry" />
        </mxCell>
        <mxCell id="wksBsVy8olKyLcgHj2rm-251" value="FK" style="shape=partialRectangle;connectable=0;fillColor=none;top=0;left=0;bottom=0;right=0;editable=1;overflow=hidden;whiteSpace=wrap;html=1;strokeColor=#0F8B8D;fontColor=#143642;" vertex="1" parent="wksBsVy8olKyLcgHj2rm-250">
          <mxGeometry width="30" height="30" as="geometry">
            <mxRectangle width="30" height="30" as="alternateBounds" />
          </mxGeometry>
        </mxCell>
        <mxCell id="wksBsVy8olKyLcgHj2rm-252" value="Office_ID" style="shape=partialRectangle;connectable=0;fillColor=none;top=0;left=0;bottom=0;right=0;align=left;spacingLeft=6;overflow=hidden;whiteSpace=wrap;html=1;strokeColor=#0F8B8D;fontColor=#143642;" vertex="1" parent="wksBsVy8olKyLcgHj2rm-250">
          <mxGeometry x="30" width="150" height="30" as="geometry">
            <mxRectangle width="150" height="30" as="alternateBounds" />
          </mxGeometry>
        </mxCell>
        <mxCell id="wksBsVy8olKyLcgHj2rm-112" value="Office" style="shape=table;startSize=30;container=1;collapsible=1;childLayout=tableLayout;fixedRows=1;rowLines=0;fontStyle=1;align=center;resizeLast=1;html=1;strokeColor=#0F8B8D;fontColor=#143642;fillColor=#FAE5C7;" vertex="1" parent="ZMFAi1i5mtqEm44oEGKB-1">
          <mxGeometry x="445" y="175" width="180" height="120" as="geometry" />
        </mxCell>
        <mxCell id="wksBsVy8olKyLcgHj2rm-113" value="" style="shape=tableRow;horizontal=0;startSize=0;swimlaneHead=0;swimlaneBody=0;fillColor=none;collapsible=0;dropTarget=0;points=[[0,0.5],[1,0.5]];portConstraint=eastwest;top=0;left=0;right=0;bottom=1;strokeColor=#0F8B8D;fontColor=#143642;" vertex="1" parent="wksBsVy8olKyLcgHj2rm-112">
          <mxGeometry y="30" width="180" height="30" as="geometry" />
        </mxCell>
        <mxCell id="wksBsVy8olKyLcgHj2rm-114" value="PK" style="shape=partialRectangle;connectable=0;fillColor=none;top=0;left=0;bottom=0;right=0;fontStyle=1;overflow=hidden;whiteSpace=wrap;html=1;strokeColor=#0F8B8D;fontColor=#143642;" vertex="1" parent="wksBsVy8olKyLcgHj2rm-113">
          <mxGeometry width="30" height="30" as="geometry">
            <mxRectangle width="30" height="30" as="alternateBounds" />
          </mxGeometry>
        </mxCell>
        <mxCell id="wksBsVy8olKyLcgHj2rm-115" value="ID" style="shape=partialRectangle;connectable=0;fillColor=none;top=0;left=0;bottom=0;right=0;align=left;spacingLeft=6;fontStyle=5;overflow=hidden;whiteSpace=wrap;html=1;strokeColor=#0F8B8D;fontColor=#143642;" vertex="1" parent="wksBsVy8olKyLcgHj2rm-113">
          <mxGeometry x="30" width="150" height="30" as="geometry">
            <mxRectangle width="150" height="30" as="alternateBounds" />
          </mxGeometry>
        </mxCell>
        <mxCell id="wksBsVy8olKyLcgHj2rm-116" value="" style="shape=tableRow;horizontal=0;startSize=0;swimlaneHead=0;swimlaneBody=0;fillColor=none;collapsible=0;dropTarget=0;points=[[0,0.5],[1,0.5]];portConstraint=eastwest;top=0;left=0;right=0;bottom=0;strokeColor=#0F8B8D;fontColor=#143642;" vertex="1" parent="wksBsVy8olKyLcgHj2rm-112">
          <mxGeometry y="60" width="180" height="30" as="geometry" />
        </mxCell>
        <mxCell id="wksBsVy8olKyLcgHj2rm-117" value="" style="shape=partialRectangle;connectable=0;fillColor=none;top=0;left=0;bottom=0;right=0;editable=1;overflow=hidden;whiteSpace=wrap;html=1;strokeColor=#0F8B8D;fontColor=#143642;" vertex="1" parent="wksBsVy8olKyLcgHj2rm-116">
          <mxGeometry width="30" height="30" as="geometry">
            <mxRectangle width="30" height="30" as="alternateBounds" />
          </mxGeometry>
        </mxCell>
        <mxCell id="wksBsVy8olKyLcgHj2rm-118" value="Address" style="shape=partialRectangle;connectable=0;fillColor=none;top=0;left=0;bottom=0;right=0;align=left;spacingLeft=6;overflow=hidden;whiteSpace=wrap;html=1;strokeColor=#0F8B8D;fontColor=#143642;" vertex="1" parent="wksBsVy8olKyLcgHj2rm-116">
          <mxGeometry x="30" width="150" height="30" as="geometry">
            <mxRectangle width="150" height="30" as="alternateBounds" />
          </mxGeometry>
        </mxCell>
        <mxCell id="wksBsVy8olKyLcgHj2rm-119" value="" style="shape=tableRow;horizontal=0;startSize=0;swimlaneHead=0;swimlaneBody=0;fillColor=none;collapsible=0;dropTarget=0;points=[[0,0.5],[1,0.5]];portConstraint=eastwest;top=0;left=0;right=0;bottom=0;strokeColor=#0F8B8D;fontColor=#143642;" vertex="1" parent="wksBsVy8olKyLcgHj2rm-112">
          <mxGeometry y="90" width="180" height="30" as="geometry" />
        </mxCell>
        <mxCell id="wksBsVy8olKyLcgHj2rm-120" value="" style="shape=partialRectangle;connectable=0;fillColor=none;top=0;left=0;bottom=0;right=0;editable=1;overflow=hidden;whiteSpace=wrap;html=1;strokeColor=#0F8B8D;fontColor=#143642;" vertex="1" parent="wksBsVy8olKyLcgHj2rm-119">
          <mxGeometry width="30" height="30" as="geometry">
            <mxRectangle width="30" height="30" as="alternateBounds" />
          </mxGeometry>
        </mxCell>
        <mxCell id="wksBsVy8olKyLcgHj2rm-121" value="Contact No." style="shape=partialRectangle;connectable=0;fillColor=none;top=0;left=0;bottom=0;right=0;align=left;spacingLeft=6;overflow=hidden;whiteSpace=wrap;html=1;strokeColor=#0F8B8D;fontColor=#143642;" vertex="1" parent="wksBsVy8olKyLcgHj2rm-119">
          <mxGeometry x="30" width="150" height="30" as="geometry">
            <mxRectangle width="150" height="30" as="alternateBounds" />
          </mxGeometry>
        </mxCell>
        <object label="Car" id="wksBsVy8olKyLcgHj2rm-125">
          <mxCell style="shape=table;startSize=30;container=1;collapsible=1;childLayout=tableLayout;fixedRows=1;rowLines=0;fontStyle=1;align=center;resizeLast=1;html=1;strokeColor=#0F8B8D;fontColor=#143642;fillColor=#f9e5c9;points=[[0,0,0,0,0],[0,0.25,0,0,0],[0,0.5,0,0,0],[0,0.75,0,0,0],[0,1,0,0,0],[0.17,1,0,0,0],[0.25,0,0,0,0],[0.25,1,0,0,0],[0.33,1,0,0,0],[0.5,0,0,0,0],[0.5,1,0,0,0],[0.67,1,0,0,0],[0.75,0,0,0,0],[0.75,1,0,0,0],[0.83,1,0,0,0],[1,0,0,0,0],[1,0.25,0,0,0],[1,0.5,0,0,0],[1,0.75,0,0,0],[1,1,0,0,0]];columnLines=1;arcSize=30;noLabel=0;portConstraintRotation=0;connectable=1;allowArrows=1;snapToPoint=0;fixedWidth=0;fillStyle=auto;" vertex="1" parent="ZMFAi1i5mtqEm44oEGKB-1">
            <mxGeometry x="140" y="360" width="180" height="270" as="geometry">
              <mxRectangle x="580" y="380" width="60" height="30" as="alternateBounds" />
            </mxGeometry>
          </mxCell>
        </object>
        <mxCell id="wksBsVy8olKyLcgHj2rm-126" value="" style="shape=tableRow;horizontal=0;startSize=0;swimlaneHead=0;swimlaneBody=0;fillColor=none;collapsible=0;dropTarget=0;points=[[0,0.5],[1,0.5]];portConstraint=eastwest;top=0;left=0;right=0;bottom=1;strokeColor=#0F8B8D;fontColor=#143642;" vertex="1" parent="wksBsVy8olKyLcgHj2rm-125">
          <mxGeometry y="30" width="180" height="30" as="geometry" />
        </mxCell>
        <mxCell id="wksBsVy8olKyLcgHj2rm-127" value="PK" style="shape=partialRectangle;connectable=0;fillColor=none;top=0;left=0;bottom=0;right=0;fontStyle=1;overflow=hidden;whiteSpace=wrap;html=1;strokeColor=#0F8B8D;fontColor=#143642;" vertex="1" parent="wksBsVy8olKyLcgHj2rm-126">
          <mxGeometry width="30" height="30" as="geometry">
            <mxRectangle width="30" height="30" as="alternateBounds" />
          </mxGeometry>
        </mxCell>
        <mxCell id="wksBsVy8olKyLcgHj2rm-128" value="ID" style="shape=partialRectangle;connectable=0;fillColor=none;top=0;left=0;bottom=0;right=0;align=left;spacingLeft=6;fontStyle=5;overflow=hidden;whiteSpace=wrap;html=1;strokeColor=#0F8B8D;fontColor=#143642;" vertex="1" parent="wksBsVy8olKyLcgHj2rm-126">
          <mxGeometry x="30" width="150" height="30" as="geometry">
            <mxRectangle width="150" height="30" as="alternateBounds" />
          </mxGeometry>
        </mxCell>
        <mxCell id="wksBsVy8olKyLcgHj2rm-129" value="" style="shape=tableRow;horizontal=0;startSize=0;swimlaneHead=0;swimlaneBody=0;fillColor=none;collapsible=0;dropTarget=0;points=[[0,0.5],[1,0.5]];portConstraint=eastwest;top=0;left=0;right=0;bottom=0;strokeColor=#0F8B8D;fontColor=#143642;" vertex="1" parent="wksBsVy8olKyLcgHj2rm-125">
          <mxGeometry y="60" width="180" height="30" as="geometry" />
        </mxCell>
        <mxCell id="wksBsVy8olKyLcgHj2rm-130" value="" style="shape=partialRectangle;connectable=0;fillColor=none;top=0;left=0;bottom=0;right=0;editable=1;overflow=hidden;whiteSpace=wrap;html=1;strokeColor=#0F8B8D;fontColor=#143642;" vertex="1" parent="wksBsVy8olKyLcgHj2rm-129">
          <mxGeometry width="30" height="30" as="geometry">
            <mxRectangle width="30" height="30" as="alternateBounds" />
          </mxGeometry>
        </mxCell>
        <mxCell id="wksBsVy8olKyLcgHj2rm-131" value="License Img" style="shape=partialRectangle;connectable=0;fillColor=none;top=0;left=0;bottom=0;right=0;align=left;spacingLeft=6;overflow=hidden;whiteSpace=wrap;html=1;strokeColor=#0F8B8D;fontColor=#143642;" vertex="1" parent="wksBsVy8olKyLcgHj2rm-129">
          <mxGeometry x="30" width="150" height="30" as="geometry">
            <mxRectangle width="150" height="30" as="alternateBounds" />
          </mxGeometry>
        </mxCell>
        <mxCell id="wksBsVy8olKyLcgHj2rm-132" value="" style="shape=tableRow;horizontal=0;startSize=0;swimlaneHead=0;swimlaneBody=0;fillColor=none;collapsible=0;dropTarget=0;points=[[0,0.5],[1,0.5]];portConstraint=eastwest;top=0;left=0;right=0;bottom=0;strokeColor=#0F8B8D;fontColor=#143642;rounded=0;" vertex="1" parent="wksBsVy8olKyLcgHj2rm-125">
          <mxGeometry y="90" width="180" height="30" as="geometry" />
        </mxCell>
        <mxCell id="wksBsVy8olKyLcgHj2rm-133" value="" style="shape=partialRectangle;connectable=0;fillColor=none;top=0;left=0;bottom=0;right=0;editable=1;overflow=hidden;whiteSpace=wrap;html=1;strokeColor=#0F8B8D;fontColor=#143642;" vertex="1" parent="wksBsVy8olKyLcgHj2rm-132">
          <mxGeometry width="30" height="30" as="geometry">
            <mxRectangle width="30" height="30" as="alternateBounds" />
          </mxGeometry>
        </mxCell>
        <mxCell id="wksBsVy8olKyLcgHj2rm-134" value="Rent Price" style="shape=partialRectangle;connectable=0;fillColor=none;top=0;left=0;bottom=0;right=0;align=left;spacingLeft=6;overflow=hidden;whiteSpace=wrap;html=1;strokeColor=#0F8B8D;fontColor=#143642;" vertex="1" parent="wksBsVy8olKyLcgHj2rm-132">
          <mxGeometry x="30" width="150" height="30" as="geometry">
            <mxRectangle width="150" height="30" as="alternateBounds" />
          </mxGeometry>
        </mxCell>
        <mxCell id="wksBsVy8olKyLcgHj2rm-135" value="" style="shape=tableRow;horizontal=0;startSize=0;swimlaneHead=0;swimlaneBody=0;fillColor=none;collapsible=0;dropTarget=0;points=[[0,0.5],[1,0.5]];portConstraint=eastwest;top=0;left=0;right=0;bottom=0;strokeColor=#0F8B8D;fontColor=#143642;rounded=0;" vertex="1" parent="wksBsVy8olKyLcgHj2rm-125">
          <mxGeometry y="120" width="180" height="30" as="geometry" />
        </mxCell>
        <mxCell id="wksBsVy8olKyLcgHj2rm-136" value="" style="shape=partialRectangle;connectable=0;fillColor=none;top=0;left=0;bottom=0;right=0;editable=1;overflow=hidden;whiteSpace=wrap;html=1;strokeColor=#0F8B8D;fontColor=#143642;" vertex="1" parent="wksBsVy8olKyLcgHj2rm-135">
          <mxGeometry width="30" height="30" as="geometry">
            <mxRectangle width="30" height="30" as="alternateBounds" />
          </mxGeometry>
        </mxCell>
        <mxCell id="wksBsVy8olKyLcgHj2rm-137" value="Status" style="shape=partialRectangle;connectable=0;fillColor=none;top=0;left=0;bottom=0;right=0;align=left;spacingLeft=6;overflow=hidden;whiteSpace=wrap;html=1;strokeColor=#0F8B8D;fontColor=#143642;" vertex="1" parent="wksBsVy8olKyLcgHj2rm-135">
          <mxGeometry x="30" width="150" height="30" as="geometry">
            <mxRectangle width="150" height="30" as="alternateBounds" />
          </mxGeometry>
        </mxCell>
        <mxCell id="wksBsVy8olKyLcgHj2rm-205" style="shape=tableRow;horizontal=0;startSize=0;swimlaneHead=0;swimlaneBody=0;fillColor=none;collapsible=0;dropTarget=0;points=[[0,0.5],[1,0.5]];portConstraint=eastwest;top=0;left=0;right=0;bottom=0;strokeColor=#0F8B8D;fontColor=#143642;rounded=0;" vertex="1" parent="wksBsVy8olKyLcgHj2rm-125">
          <mxGeometry y="150" width="180" height="30" as="geometry" />
        </mxCell>
        <mxCell id="wksBsVy8olKyLcgHj2rm-206" style="shape=partialRectangle;connectable=0;fillColor=none;top=0;left=0;bottom=0;right=0;editable=1;overflow=hidden;whiteSpace=wrap;html=1;strokeColor=#0F8B8D;fontColor=#143642;" vertex="1" parent="wksBsVy8olKyLcgHj2rm-205">
          <mxGeometry width="30" height="30" as="geometry">
            <mxRectangle width="30" height="30" as="alternateBounds" />
          </mxGeometry>
        </mxCell>
        <mxCell id="wksBsVy8olKyLcgHj2rm-207" value="Brand" style="shape=partialRectangle;connectable=0;fillColor=none;top=0;left=0;bottom=0;right=0;align=left;spacingLeft=6;overflow=hidden;whiteSpace=wrap;html=1;strokeColor=#0F8B8D;fontColor=#143642;" vertex="1" parent="wksBsVy8olKyLcgHj2rm-205">
          <mxGeometry x="30" width="150" height="30" as="geometry">
            <mxRectangle width="150" height="30" as="alternateBounds" />
          </mxGeometry>
        </mxCell>
        <mxCell id="wksBsVy8olKyLcgHj2rm-208" style="shape=tableRow;horizontal=0;startSize=0;swimlaneHead=0;swimlaneBody=0;fillColor=none;collapsible=0;dropTarget=0;points=[[0,0.5],[1,0.5]];portConstraint=eastwest;top=0;left=0;right=0;bottom=0;strokeColor=#0F8B8D;fontColor=#143642;rounded=0;" vertex="1" parent="wksBsVy8olKyLcgHj2rm-125">
          <mxGeometry y="180" width="180" height="30" as="geometry" />
        </mxCell>
        <mxCell id="wksBsVy8olKyLcgHj2rm-209" style="shape=partialRectangle;connectable=0;fillColor=none;top=0;left=0;bottom=0;right=0;editable=1;overflow=hidden;whiteSpace=wrap;html=1;strokeColor=#0F8B8D;fontColor=#143642;" vertex="1" parent="wksBsVy8olKyLcgHj2rm-208">
          <mxGeometry width="30" height="30" as="geometry">
            <mxRectangle width="30" height="30" as="alternateBounds" />
          </mxGeometry>
        </mxCell>
        <mxCell id="wksBsVy8olKyLcgHj2rm-210" value="Model Name" style="shape=partialRectangle;connectable=0;fillColor=none;top=0;left=0;bottom=0;right=0;align=left;spacingLeft=6;overflow=hidden;whiteSpace=wrap;html=1;strokeColor=#0F8B8D;fontColor=#143642;" vertex="1" parent="wksBsVy8olKyLcgHj2rm-208">
          <mxGeometry x="30" width="150" height="30" as="geometry">
            <mxRectangle width="150" height="30" as="alternateBounds" />
          </mxGeometry>
        </mxCell>
        <mxCell id="wksBsVy8olKyLcgHj2rm-211" style="shape=tableRow;horizontal=0;startSize=0;swimlaneHead=0;swimlaneBody=0;fillColor=none;collapsible=0;dropTarget=0;points=[[0,0.5],[1,0.5]];portConstraint=eastwest;top=0;left=0;right=0;bottom=0;strokeColor=#0F8B8D;fontColor=#143642;rounded=0;" vertex="1" parent="wksBsVy8olKyLcgHj2rm-125">
          <mxGeometry y="210" width="180" height="30" as="geometry" />
        </mxCell>
        <mxCell id="wksBsVy8olKyLcgHj2rm-212" style="shape=partialRectangle;connectable=0;fillColor=none;top=0;left=0;bottom=0;right=0;editable=1;overflow=hidden;whiteSpace=wrap;html=1;strokeColor=#0F8B8D;fontColor=#143642;" vertex="1" parent="wksBsVy8olKyLcgHj2rm-211">
          <mxGeometry width="30" height="30" as="geometry">
            <mxRectangle width="30" height="30" as="alternateBounds" />
          </mxGeometry>
        </mxCell>
        <mxCell id="wksBsVy8olKyLcgHj2rm-213" value="Model Year" style="shape=partialRectangle;connectable=0;fillColor=none;top=0;left=0;bottom=0;right=0;align=left;spacingLeft=6;overflow=hidden;whiteSpace=wrap;html=1;strokeColor=#0F8B8D;fontColor=#143642;" vertex="1" parent="wksBsVy8olKyLcgHj2rm-211">
          <mxGeometry x="30" width="150" height="30" as="geometry">
            <mxRectangle width="150" height="30" as="alternateBounds" />
          </mxGeometry>
        </mxCell>
        <mxCell id="wksBsVy8olKyLcgHj2rm-230" style="shape=tableRow;horizontal=0;startSize=0;swimlaneHead=0;swimlaneBody=0;fillColor=none;collapsible=0;dropTarget=0;points=[[0,0.5],[1,0.5]];portConstraint=eastwest;top=0;left=0;right=0;bottom=0;strokeColor=#0F8B8D;fontColor=#143642;rounded=0;" vertex="1" parent="wksBsVy8olKyLcgHj2rm-125">
          <mxGeometry y="240" width="180" height="30" as="geometry" />
        </mxCell>
        <mxCell id="wksBsVy8olKyLcgHj2rm-231" value="FK" style="shape=partialRectangle;connectable=0;fillColor=none;top=0;left=0;bottom=0;right=0;editable=1;overflow=hidden;whiteSpace=wrap;html=1;strokeColor=#0F8B8D;fontColor=#143642;" vertex="1" parent="wksBsVy8olKyLcgHj2rm-230">
          <mxGeometry width="30" height="30" as="geometry">
            <mxRectangle width="30" height="30" as="alternateBounds" />
          </mxGeometry>
        </mxCell>
        <mxCell id="wksBsVy8olKyLcgHj2rm-232" value="Owner_SSN" style="shape=partialRectangle;connectable=0;fillColor=none;top=0;left=0;bottom=0;right=0;align=left;spacingLeft=6;overflow=hidden;whiteSpace=wrap;html=1;strokeColor=#0F8B8D;fontColor=#143642;" vertex="1" parent="wksBsVy8olKyLcgHj2rm-230">
          <mxGeometry x="30" width="150" height="30" as="geometry">
            <mxRectangle width="150" height="30" as="alternateBounds" />
          </mxGeometry>
        </mxCell>
        <mxCell id="ZMFAi1i5mtqEm44oEGKB-3" value="" style="group" vertex="1" connectable="0" parent="ZMFAi1i5mtqEm44oEGKB-1">
          <mxGeometry x="-950" y="90" width="250" height="160" as="geometry" />
        </mxCell>
        <mxCell id="ZMFAi1i5mtqEm44oEGKB-4" value="" style="group" vertex="1" connectable="0" parent="ZMFAi1i5mtqEm44oEGKB-3">
          <mxGeometry width="190" height="160" as="geometry" />
        </mxCell>
        <mxCell id="ZMFAi1i5mtqEm44oEGKB-5" value="" style="edgeStyle=orthogonalEdgeStyle;rounded=1;orthogonalLoop=1;jettySize=auto;html=1;exitX=0.25;exitY=0;exitDx=0;exitDy=0;labelBackgroundColor=none;strokeColor=#A8201A;fontColor=default;curved=0;endArrow=none;endFill=0;" edge="1" parent="ZMFAi1i5mtqEm44oEGKB-4" source="ZMFAi1i5mtqEm44oEGKB-7" target="ZMFAi1i5mtqEm44oEGKB-8">
          <mxGeometry relative="1" as="geometry" />
        </mxCell>
        <mxCell id="ZMFAi1i5mtqEm44oEGKB-6" style="edgeStyle=orthogonalEdgeStyle;rounded=1;orthogonalLoop=1;jettySize=auto;html=1;entryX=0.5;entryY=1;entryDx=0;entryDy=0;labelBackgroundColor=none;strokeColor=#A8201A;fontColor=default;curved=0;endArrow=none;endFill=0;" edge="1" parent="ZMFAi1i5mtqEm44oEGKB-4" source="ZMFAi1i5mtqEm44oEGKB-7" target="ZMFAi1i5mtqEm44oEGKB-9">
          <mxGeometry relative="1" as="geometry" />
        </mxCell>
        <mxCell id="ZMFAi1i5mtqEm44oEGKB-7" value="&lt;font style=&quot;font-size: 18px;&quot;&gt;Owner&lt;/font&gt;" style="rounded=0;whiteSpace=wrap;html=1;labelBackgroundColor=none;fillColor=#FAE5C7;strokeColor=#0F8B8D;fontColor=#143642;" vertex="1" parent="ZMFAi1i5mtqEm44oEGKB-4">
          <mxGeometry x="25" y="100" width="120" height="60" as="geometry" />
        </mxCell>
        <mxCell id="ZMFAi1i5mtqEm44oEGKB-8" value="&lt;u&gt;&lt;b&gt;&lt;font style=&quot;font-size: 14px;&quot;&gt;SSN&lt;/font&gt;&lt;/b&gt;&lt;/u&gt;" style="ellipse;whiteSpace=wrap;html=1;rounded=0;labelBackgroundColor=none;fillColor=#FAE5C7;strokeColor=#0F8B8D;fontColor=#143642;" vertex="1" parent="ZMFAi1i5mtqEm44oEGKB-4">
          <mxGeometry y="10" width="40" height="40" as="geometry" />
        </mxCell>
        <mxCell id="ZMFAi1i5mtqEm44oEGKB-9" value="&lt;font style=&quot;font-size: 10px;&quot;&gt;Full Name&lt;/font&gt;" style="ellipse;whiteSpace=wrap;html=1;rounded=0;labelBackgroundColor=none;fillColor=#FAE5C7;strokeColor=#0F8B8D;fontColor=#143642;" vertex="1" parent="ZMFAi1i5mtqEm44oEGKB-4">
          <mxGeometry x="60" width="50" height="40" as="geometry" />
        </mxCell>
        <mxCell id="ZMFAi1i5mtqEm44oEGKB-10" value="&lt;span style=&quot;font-size: 10px;&quot;&gt;Account No.&lt;/span&gt;" style="ellipse;whiteSpace=wrap;html=1;rounded=0;labelBackgroundColor=none;fillColor=#FAE5C7;strokeColor=#0F8B8D;fontColor=#143642;" vertex="1" parent="ZMFAi1i5mtqEm44oEGKB-4">
          <mxGeometry x="124" width="66" height="40" as="geometry" />
        </mxCell>
        <mxCell id="ZMFAi1i5mtqEm44oEGKB-11" style="edgeStyle=orthogonalEdgeStyle;rounded=1;orthogonalLoop=1;jettySize=auto;html=1;entryX=0.545;entryY=1;entryDx=0;entryDy=0;entryPerimeter=0;exitX=0.75;exitY=0;exitDx=0;exitDy=0;labelBackgroundColor=none;strokeColor=#A8201A;fontColor=default;curved=0;endArrow=none;endFill=0;" edge="1" parent="ZMFAi1i5mtqEm44oEGKB-4" source="ZMFAi1i5mtqEm44oEGKB-7" target="ZMFAi1i5mtqEm44oEGKB-10">
          <mxGeometry relative="1" as="geometry">
            <Array as="points">
              <mxPoint x="115" y="60" />
              <mxPoint x="160" y="60" />
            </Array>
          </mxGeometry>
        </mxCell>
        <mxCell id="ZMFAi1i5mtqEm44oEGKB-12" value="" style="group" vertex="1" connectable="0" parent="ZMFAi1i5mtqEm44oEGKB-1">
          <mxGeometry x="-359" y="420" width="220" height="150" as="geometry" />
        </mxCell>
        <mxCell id="ZMFAi1i5mtqEm44oEGKB-13" value="" style="edgeStyle=orthogonalEdgeStyle;rounded=1;orthogonalLoop=1;jettySize=auto;html=1;exitX=0.25;exitY=0;exitDx=0;exitDy=0;labelBackgroundColor=none;strokeColor=#A8201A;fontColor=default;curved=0;endArrow=none;endFill=0;" edge="1" parent="ZMFAi1i5mtqEm44oEGKB-12" source="ZMFAi1i5mtqEm44oEGKB-15" target="ZMFAi1i5mtqEm44oEGKB-16">
          <mxGeometry relative="1" as="geometry" />
        </mxCell>
        <mxCell id="ZMFAi1i5mtqEm44oEGKB-14" style="edgeStyle=orthogonalEdgeStyle;rounded=1;orthogonalLoop=1;jettySize=auto;html=1;exitX=0.75;exitY=0;exitDx=0;exitDy=0;entryX=0.5;entryY=1;entryDx=0;entryDy=0;labelBackgroundColor=none;strokeColor=#A8201A;fontColor=default;curved=0;endArrow=none;endFill=0;" edge="1" parent="ZMFAi1i5mtqEm44oEGKB-12" source="ZMFAi1i5mtqEm44oEGKB-15" target="ZMFAi1i5mtqEm44oEGKB-18">
          <mxGeometry relative="1" as="geometry" />
        </mxCell>
        <mxCell id="ZMFAi1i5mtqEm44oEGKB-15" value="&lt;font style=&quot;font-size: 18px;&quot;&gt;Tenant&lt;/font&gt;" style="rounded=0;whiteSpace=wrap;html=1;labelBackgroundColor=none;fillColor=#FAE5C7;strokeColor=#0F8B8D;fontColor=#143642;" vertex="1" parent="ZMFAi1i5mtqEm44oEGKB-12">
          <mxGeometry x="30" y="90" width="120" height="60" as="geometry" />
        </mxCell>
        <mxCell id="ZMFAi1i5mtqEm44oEGKB-16" value="&lt;font style=&quot;font-size: 14px;&quot;&gt;&lt;u style=&quot;&quot;&gt;&lt;b&gt;SSN&lt;/b&gt;&lt;/u&gt;&lt;/font&gt;" style="ellipse;whiteSpace=wrap;html=1;rounded=0;labelBackgroundColor=none;fillColor=#FAE5C7;strokeColor=#0F8B8D;fontColor=#143642;" vertex="1" parent="ZMFAi1i5mtqEm44oEGKB-12">
          <mxGeometry width="40" height="40" as="geometry" />
        </mxCell>
        <mxCell id="ZMFAi1i5mtqEm44oEGKB-17" value="&lt;span style=&quot;font-size: 10px;&quot;&gt;Driving License&lt;/span&gt;" style="ellipse;whiteSpace=wrap;html=1;rounded=0;labelBackgroundColor=none;fillColor=#FAE5C7;strokeColor=#0F8B8D;fontColor=#143642;" vertex="1" parent="ZMFAi1i5mtqEm44oEGKB-12">
          <mxGeometry x="60" width="81" height="40" as="geometry" />
        </mxCell>
        <mxCell id="ZMFAi1i5mtqEm44oEGKB-18" value="Phone" style="ellipse;whiteSpace=wrap;html=1;rounded=0;labelBackgroundColor=none;fillColor=#FAE5C7;strokeColor=#0F8B8D;fontColor=#143642;" vertex="1" parent="ZMFAi1i5mtqEm44oEGKB-12">
          <mxGeometry x="154" width="66" height="40" as="geometry" />
        </mxCell>
        <mxCell id="ZMFAi1i5mtqEm44oEGKB-19" style="edgeStyle=orthogonalEdgeStyle;rounded=1;orthogonalLoop=1;jettySize=auto;html=1;exitX=0.5;exitY=0;exitDx=0;exitDy=0;entryX=0.5;entryY=1;entryDx=0;entryDy=0;labelBackgroundColor=none;strokeColor=#A8201A;fontColor=default;curved=0;endArrow=none;endFill=0;" edge="1" parent="ZMFAi1i5mtqEm44oEGKB-12" source="ZMFAi1i5mtqEm44oEGKB-15" target="ZMFAi1i5mtqEm44oEGKB-17">
          <mxGeometry relative="1" as="geometry" />
        </mxCell>
        <mxCell id="ZMFAi1i5mtqEm44oEGKB-39" value="&lt;span style=&quot;line-height: 107%;&quot;&gt;&lt;font style=&quot;font-size: 14px;&quot;&gt;provide&amp;nbsp;&lt;/font&gt;&lt;/span&gt;" style="rhombus;whiteSpace=wrap;html=1;strokeColor=#0F8B8D;fontColor=#143642;fillColor=#FAE5C7;" vertex="1" parent="ZMFAi1i5mtqEm44oEGKB-1">
          <mxGeometry x="-610" y="170" width="80" height="80" as="geometry" />
        </mxCell>
        <mxCell id="ZMFAi1i5mtqEm44oEGKB-40" style="rounded=1;orthogonalLoop=1;jettySize=auto;html=1;exitX=1;exitY=0.75;exitDx=0;exitDy=0;strokeColor=default;fontColor=#143642;fillColor=#FAE5C7;edgeStyle=orthogonalEdgeStyle;curved=0;endArrow=none;endFill=0;" edge="1" parent="ZMFAi1i5mtqEm44oEGKB-1" source="ZMFAi1i5mtqEm44oEGKB-7" target="ZMFAi1i5mtqEm44oEGKB-39">
          <mxGeometry relative="1" as="geometry" />
        </mxCell>
        <mxCell id="ZMFAi1i5mtqEm44oEGKB-41" value="&lt;b&gt;M&lt;/b&gt;" style="edgeLabel;html=1;align=center;verticalAlign=middle;resizable=0;points=[];strokeColor=#0F8B8D;fontColor=#143642;fillColor=#FAE5C7;" vertex="1" connectable="0" parent="ZMFAi1i5mtqEm44oEGKB-40">
          <mxGeometry x="-0.861" y="-3" relative="1" as="geometry">
            <mxPoint x="-5" y="6" as="offset" />
          </mxGeometry>
        </mxCell>
        <mxCell id="ZMFAi1i5mtqEm44oEGKB-42" style="edgeStyle=orthogonalEdgeStyle;rounded=1;orthogonalLoop=1;jettySize=auto;html=1;exitX=1;exitY=0.5;exitDx=0;exitDy=0;entryX=-0.009;entryY=0.437;entryDx=0;entryDy=0;entryPerimeter=0;strokeColor=#000000;fontColor=#143642;fillColor=#FAE5C7;endArrow=none;endFill=0;curved=0;shape=link;" edge="1" parent="ZMFAi1i5mtqEm44oEGKB-1" source="ZMFAi1i5mtqEm44oEGKB-39" target="ZMFAi1i5mtqEm44oEGKB-45">
          <mxGeometry relative="1" as="geometry" />
        </mxCell>
        <mxCell id="ZMFAi1i5mtqEm44oEGKB-43" value="&lt;b&gt;1&lt;/b&gt;" style="edgeLabel;html=1;align=center;verticalAlign=middle;resizable=0;points=[];strokeColor=#0F8B8D;fontColor=#143642;fillColor=#FAE5C7;" vertex="1" connectable="0" parent="ZMFAi1i5mtqEm44oEGKB-42">
          <mxGeometry x="0.8895" y="2" relative="1" as="geometry">
            <mxPoint x="-1" y="-11" as="offset" />
          </mxGeometry>
        </mxCell>
        <mxCell id="ZMFAi1i5mtqEm44oEGKB-44" style="edgeStyle=orthogonalEdgeStyle;rounded=1;orthogonalLoop=1;jettySize=auto;html=1;entryX=0.5;entryY=1;entryDx=0;entryDy=0;labelBackgroundColor=none;strokeColor=#A8201A;fontColor=default;endArrow=none;endFill=0;curved=0;" edge="1" parent="ZMFAi1i5mtqEm44oEGKB-1" source="ZMFAi1i5mtqEm44oEGKB-45" target="ZMFAi1i5mtqEm44oEGKB-47">
          <mxGeometry relative="1" as="geometry" />
        </mxCell>
        <mxCell id="ZMFAi1i5mtqEm44oEGKB-45" value="&lt;font style=&quot;font-size: 18px;&quot;&gt;Office&lt;/font&gt;" style="rounded=0;whiteSpace=wrap;html=1;labelBackgroundColor=none;fillColor=#FAE5C7;strokeColor=#0F8B8D;fontColor=#143642;" vertex="1" parent="ZMFAi1i5mtqEm44oEGKB-1">
          <mxGeometry x="-340" y="190" width="120" height="60" as="geometry" />
        </mxCell>
        <mxCell id="ZMFAi1i5mtqEm44oEGKB-46" value="&lt;u&gt;&lt;font style=&quot;font-size: 14px;&quot;&gt;&lt;b&gt;ID&lt;/b&gt;&lt;/font&gt;&lt;/u&gt;" style="ellipse;whiteSpace=wrap;html=1;rounded=0;labelBackgroundColor=none;fillColor=#FAE5C7;strokeColor=#0F8B8D;fontColor=#143642;" vertex="1" parent="ZMFAi1i5mtqEm44oEGKB-1">
          <mxGeometry x="-334" y="130" width="40" height="40" as="geometry" />
        </mxCell>
        <mxCell id="ZMFAi1i5mtqEm44oEGKB-47" value="Address" style="ellipse;whiteSpace=wrap;html=1;rounded=0;labelBackgroundColor=none;fillColor=#FAE5C7;strokeColor=#0F8B8D;fontColor=#143642;" vertex="1" parent="ZMFAi1i5mtqEm44oEGKB-1">
          <mxGeometry x="-274" y="120" width="50" height="40" as="geometry" />
        </mxCell>
        <mxCell id="ZMFAi1i5mtqEm44oEGKB-48" value="&lt;font style=&quot;font-size: 10px;&quot;&gt;Contact No.&lt;/font&gt;" style="ellipse;whiteSpace=wrap;html=1;rounded=0;labelBackgroundColor=none;fillColor=#FAE5C7;strokeColor=#0F8B8D;fontColor=#143642;" vertex="1" parent="ZMFAi1i5mtqEm44oEGKB-1">
          <mxGeometry x="-220" y="120" width="66" height="40" as="geometry" />
        </mxCell>
        <mxCell id="ZMFAi1i5mtqEm44oEGKB-49" style="edgeStyle=orthogonalEdgeStyle;rounded=1;orthogonalLoop=1;jettySize=auto;html=1;entryX=0.545;entryY=1;entryDx=0;entryDy=0;entryPerimeter=0;labelBackgroundColor=none;strokeColor=#A8201A;fontColor=default;endArrow=none;endFill=0;curved=0;" edge="1" parent="ZMFAi1i5mtqEm44oEGKB-1" source="ZMFAi1i5mtqEm44oEGKB-45" target="ZMFAi1i5mtqEm44oEGKB-48">
          <mxGeometry relative="1" as="geometry">
            <Array as="points">
              <mxPoint x="-264" y="180" />
              <mxPoint x="-184" y="180" />
            </Array>
          </mxGeometry>
        </mxCell>
        <mxCell id="ZMFAi1i5mtqEm44oEGKB-50" style="edgeStyle=orthogonalEdgeStyle;rounded=1;orthogonalLoop=1;jettySize=auto;html=1;exitX=0.25;exitY=0;exitDx=0;exitDy=0;entryX=0.5;entryY=1;entryDx=0;entryDy=0;strokeColor=#A8201A;fontColor=#143642;fillColor=#FAE5C7;endArrow=none;endFill=0;curved=0;" edge="1" parent="ZMFAi1i5mtqEm44oEGKB-1" source="ZMFAi1i5mtqEm44oEGKB-45" target="ZMFAi1i5mtqEm44oEGKB-46">
          <mxGeometry relative="1" as="geometry" />
        </mxCell>
        <mxCell id="ZMFAi1i5mtqEm44oEGKB-51" style="edgeStyle=orthogonalEdgeStyle;rounded=1;orthogonalLoop=1;jettySize=auto;html=1;exitX=0.5;exitY=1;exitDx=0;exitDy=0;entryX=0;entryY=0.5;entryDx=0;entryDy=0;strokeColor=#000000;fontColor=#143642;fillColor=#FAE5C7;curved=0;endArrow=none;endFill=0;shape=link;" edge="1" parent="ZMFAi1i5mtqEm44oEGKB-1" source="wksBsVy8olKyLcgHj2rm-247" target="wksBsVy8olKyLcgHj2rm-246">
          <mxGeometry relative="1" as="geometry">
            <mxPoint x="-940" y="490" as="sourcePoint" />
          </mxGeometry>
        </mxCell>
        <mxCell id="ZMFAi1i5mtqEm44oEGKB-52" value="&lt;b&gt;M&lt;/b&gt;" style="edgeLabel;html=1;align=center;verticalAlign=middle;resizable=0;points=[];strokeColor=#0F8B8D;fontColor=#143642;fillColor=#FAE5C7;" vertex="1" connectable="0" parent="ZMFAi1i5mtqEm44oEGKB-51">
          <mxGeometry x="0.7562" relative="1" as="geometry">
            <mxPoint x="7" y="-11" as="offset" />
          </mxGeometry>
        </mxCell>
        <mxCell id="ZMFAi1i5mtqEm44oEGKB-54" style="edgeStyle=orthogonalEdgeStyle;rounded=1;orthogonalLoop=1;jettySize=auto;html=1;exitX=0.25;exitY=1;exitDx=0;exitDy=0;entryX=0.5;entryY=0;entryDx=0;entryDy=0;strokeColor=#000000;fontColor=#143642;fillColor=#FAE5C7;curved=0;endArrow=none;endFill=0;" edge="1" parent="ZMFAi1i5mtqEm44oEGKB-1" source="ZMFAi1i5mtqEm44oEGKB-7" target="wksBsVy8olKyLcgHj2rm-247">
          <mxGeometry relative="1" as="geometry">
            <mxPoint x="-940" y="410" as="targetPoint" />
          </mxGeometry>
        </mxCell>
        <mxCell id="ZMFAi1i5mtqEm44oEGKB-55" value="&lt;b&gt;1&lt;/b&gt;" style="edgeLabel;html=1;align=center;verticalAlign=middle;resizable=0;points=[];strokeColor=#0F8B8D;fontColor=#143642;fillColor=#FAE5C7;" vertex="1" connectable="0" parent="ZMFAi1i5mtqEm44oEGKB-54">
          <mxGeometry x="-0.8519" y="2" relative="1" as="geometry">
            <mxPoint x="-10" y="-4" as="offset" />
          </mxGeometry>
        </mxCell>
        <mxCell id="ZMFAi1i5mtqEm44oEGKB-56" style="edgeStyle=orthogonalEdgeStyle;rounded=1;orthogonalLoop=1;jettySize=auto;html=1;exitX=0;exitY=1;exitDx=0;exitDy=0;entryX=0.5;entryY=0;entryDx=0;entryDy=0;strokeColor=#A8201A;fontColor=#143642;fillColor=#FAE5C7;curved=0;endArrow=none;endFill=0;" edge="1" parent="ZMFAi1i5mtqEm44oEGKB-1" source="ZMFAi1i5mtqEm44oEGKB-59" target="ZMFAi1i5mtqEm44oEGKB-63">
          <mxGeometry relative="1" as="geometry">
            <Array as="points">
              <mxPoint x="-479" y="660" />
              <mxPoint x="-533" y="660" />
            </Array>
          </mxGeometry>
        </mxCell>
        <mxCell id="ZMFAi1i5mtqEm44oEGKB-57" style="edgeStyle=orthogonalEdgeStyle;rounded=1;orthogonalLoop=1;jettySize=auto;html=1;exitX=0.5;exitY=1;exitDx=0;exitDy=0;entryX=0.5;entryY=0;entryDx=0;entryDy=0;strokeColor=#A8201A;fontColor=#143642;fillColor=#FAE5C7;curved=0;endArrow=none;endFill=0;" edge="1" parent="ZMFAi1i5mtqEm44oEGKB-1" source="ZMFAi1i5mtqEm44oEGKB-59" target="ZMFAi1i5mtqEm44oEGKB-64">
          <mxGeometry relative="1" as="geometry" />
        </mxCell>
        <mxCell id="ZMFAi1i5mtqEm44oEGKB-58" style="edgeStyle=orthogonalEdgeStyle;rounded=1;orthogonalLoop=1;jettySize=auto;html=1;exitX=1;exitY=1;exitDx=0;exitDy=0;entryX=0.5;entryY=0;entryDx=0;entryDy=0;strokeColor=#A8201A;fontColor=#143642;fillColor=#FAE5C7;curved=0;endArrow=none;endFill=0;" edge="1" parent="ZMFAi1i5mtqEm44oEGKB-1" source="ZMFAi1i5mtqEm44oEGKB-59" target="ZMFAi1i5mtqEm44oEGKB-65">
          <mxGeometry relative="1" as="geometry">
            <Array as="points">
              <mxPoint x="-436" y="660" />
              <mxPoint x="-382" y="660" />
            </Array>
          </mxGeometry>
        </mxCell>
        <mxCell id="ZMFAi1i5mtqEm44oEGKB-59" value="Ordered by" style="rhombus;whiteSpace=wrap;html=1;strokeColor=#0F8B8D;fontColor=#143642;fillColor=#FAE5C7;" vertex="1" parent="ZMFAi1i5mtqEm44oEGKB-1">
          <mxGeometry x="-500" y="580" width="85" height="85" as="geometry" />
        </mxCell>
        <mxCell id="ZMFAi1i5mtqEm44oEGKB-60" style="edgeStyle=orthogonalEdgeStyle;rounded=1;orthogonalLoop=1;jettySize=auto;html=1;exitX=0.5;exitY=1;exitDx=0;exitDy=0;entryX=0;entryY=0.5;entryDx=0;entryDy=0;strokeColor=#050101;fontColor=#143642;fillColor=#FAE5C7;curved=0;endArrow=none;endFill=0;" edge="1" parent="ZMFAi1i5mtqEm44oEGKB-1" source="wksBsVy8olKyLcgHj2rm-246" target="ZMFAi1i5mtqEm44oEGKB-59">
          <mxGeometry relative="1" as="geometry" />
        </mxCell>
        <mxCell id="ZMFAi1i5mtqEm44oEGKB-61" style="edgeStyle=orthogonalEdgeStyle;rounded=1;orthogonalLoop=1;jettySize=auto;html=1;exitX=0.5;exitY=1;exitDx=0;exitDy=0;entryX=1;entryY=0.5;entryDx=0;entryDy=0;strokeColor=#050101;fontColor=#143642;fillColor=#FAE5C7;curved=0;endArrow=none;endFill=0;" edge="1" parent="ZMFAi1i5mtqEm44oEGKB-1" source="ZMFAi1i5mtqEm44oEGKB-15" target="ZMFAi1i5mtqEm44oEGKB-59">
          <mxGeometry relative="1" as="geometry" />
        </mxCell>
        <mxCell id="ZMFAi1i5mtqEm44oEGKB-62" value="&lt;b&gt;M&lt;/b&gt;" style="edgeLabel;html=1;align=center;verticalAlign=middle;resizable=0;points=[];strokeColor=#0F8B8D;fontColor=#143642;fillColor=#FAE5C7;" vertex="1" connectable="0" parent="ZMFAi1i5mtqEm44oEGKB-61">
          <mxGeometry x="-0.8909" y="1" relative="1" as="geometry">
            <mxPoint x="-12" as="offset" />
          </mxGeometry>
        </mxCell>
        <mxCell id="ZMFAi1i5mtqEm44oEGKB-63" value="Payment method" style="ellipse;whiteSpace=wrap;html=1;rounded=0;labelBackgroundColor=none;fillColor=#FAE5C7;strokeColor=#0F8B8D;fontColor=#143642;" vertex="1" parent="ZMFAi1i5mtqEm44oEGKB-1">
          <mxGeometry x="-566" y="680" width="66" height="40" as="geometry" />
        </mxCell>
        <mxCell id="ZMFAi1i5mtqEm44oEGKB-64" value="Duration" style="ellipse;whiteSpace=wrap;html=1;rounded=0;labelBackgroundColor=none;fillColor=#FAE5C7;strokeColor=#0F8B8D;fontColor=#143642;" vertex="1" parent="ZMFAi1i5mtqEm44oEGKB-1">
          <mxGeometry x="-490.5" y="680" width="66" height="40" as="geometry" />
        </mxCell>
        <mxCell id="ZMFAi1i5mtqEm44oEGKB-65" value="Start d&lt;span style=&quot;color: rgba(0, 0, 0, 0); font-family: monospace; font-size: 0px; text-align: start; text-wrap: nowrap;&quot;&gt;%3CmxGraphModel%3E%3Croot%3E%3CmxCell%20id%3D%220%22%2F%3E%3CmxCell%20id%3D%221%22%20parent%3D%220%22%2F%3E%3CmxCell%20id%3D%222%22%20value%3D%22Status%26lt%3Bspan%20style%3D%26quot%3Bcolor%3A%20rgba(0%2C%200%2C%200%2C%200)%3B%20font-family%3A%20monospace%3B%20font-size%3A%200px%3B%20text-align%3A%20start%3B%20text-wrap%3A%20nowrap%3B%26quot%3B%26gt%3B%253CmxGraphModel%253E%253Croot%253E%253CmxCell%2520id%253D%25220%2522%252F%253E%253CmxCell%2520id%253D%25221%2522%2520parent%253D%25220%2522%252F%253E%253CmxCell%2520id%253D%25222%2522%2520value%253D%2522Rent%2520Value%2522%2520style%253D%2522ellipse%253BwhiteSpace%253Dwrap%253Bhtml%253D1%253Brounded%253D0%253B%2522%2520vertex%253D%25221%2522%2520parent%253D%25221%2522%253E%253CmxGeometry%2520x%253D%2522379%2522%2520y%253D%2522440%2522%2520width%253D%252266%2522%2520height%253D%252240%2522%2520as%253D%2522geometry%2522%252F%253E%253C%252FmxCell%253E%253C%252Froot%253E%253C%252FmxGraphModel%253E%26lt%3B%2Fspan%26gt%3B%22%20style%3D%22ellipse%3BwhiteSpace%3Dwrap%3Bhtml%3D1%3Brounded%3D0%3BlabelBackgroundColor%3Dnone%3BfillColor%3D%23FAE5C7%3BstrokeColor%3D%230F8B8D%3BfontColor%3D%23143642%3B%22%20vertex%3D%221%22%20parent%3D%221%22%3E%3CmxGeometry%20x%3D%22398%22%20y%3D%22560%22%20width%3D%2266%22%20height%3D%2240%22%20as%3D%22geometry%22%2F%3E%3C%2FmxCell%3E%3C%2Froot%3E%3C%2FmxGraphModel%3E&lt;/span&gt;ate" style="ellipse;whiteSpace=wrap;html=1;rounded=0;labelBackgroundColor=none;fillColor=#FAE5C7;strokeColor=#0F8B8D;fontColor=#143642;" vertex="1" parent="ZMFAi1i5mtqEm44oEGKB-1">
          <mxGeometry x="-415" y="680" width="66" height="40" as="geometry" />
        </mxCell>
        <mxCell id="wksBsVy8olKyLcgHj2rm-99" value="Tenant" style="shape=table;startSize=30;container=1;collapsible=1;childLayout=tableLayout;fixedRows=1;rowLines=0;fontStyle=1;align=center;resizeLast=1;html=1;strokeColor=#0F8B8D;fontColor=#143642;fillColor=#FAE5C7;" vertex="1" parent="ZMFAi1i5mtqEm44oEGKB-1">
          <mxGeometry x="445" y="435" width="180" height="120" as="geometry" />
        </mxCell>
        <mxCell id="wksBsVy8olKyLcgHj2rm-100" value="" style="shape=tableRow;horizontal=0;startSize=0;swimlaneHead=0;swimlaneBody=0;fillColor=none;collapsible=0;dropTarget=0;points=[[0,0.5],[1,0.5]];portConstraint=eastwest;top=0;left=0;right=0;bottom=1;strokeColor=#0F8B8D;fontColor=#143642;" vertex="1" parent="wksBsVy8olKyLcgHj2rm-99">
          <mxGeometry y="30" width="180" height="30" as="geometry" />
        </mxCell>
        <mxCell id="wksBsVy8olKyLcgHj2rm-101" value="PK" style="shape=partialRectangle;connectable=0;fillColor=none;top=0;left=0;bottom=0;right=0;fontStyle=1;overflow=hidden;whiteSpace=wrap;html=1;strokeColor=#0F8B8D;fontColor=#143642;" vertex="1" parent="wksBsVy8olKyLcgHj2rm-100">
          <mxGeometry width="30" height="30" as="geometry">
            <mxRectangle width="30" height="30" as="alternateBounds" />
          </mxGeometry>
        </mxCell>
        <mxCell id="wksBsVy8olKyLcgHj2rm-102" value="SSN" style="shape=partialRectangle;connectable=0;fillColor=none;top=0;left=0;bottom=0;right=0;align=left;spacingLeft=6;fontStyle=5;overflow=hidden;whiteSpace=wrap;html=1;strokeColor=#0F8B8D;fontColor=#143642;" vertex="1" parent="wksBsVy8olKyLcgHj2rm-100">
          <mxGeometry x="30" width="150" height="30" as="geometry">
            <mxRectangle width="150" height="30" as="alternateBounds" />
          </mxGeometry>
        </mxCell>
        <mxCell id="wksBsVy8olKyLcgHj2rm-103" value="" style="shape=tableRow;horizontal=0;startSize=0;swimlaneHead=0;swimlaneBody=0;fillColor=none;collapsible=0;dropTarget=0;points=[[0,0.5],[1,0.5]];portConstraint=eastwest;top=0;left=0;right=0;bottom=0;strokeColor=#0F8B8D;fontColor=#143642;" vertex="1" parent="wksBsVy8olKyLcgHj2rm-99">
          <mxGeometry y="60" width="180" height="30" as="geometry" />
        </mxCell>
        <mxCell id="wksBsVy8olKyLcgHj2rm-104" value="" style="shape=partialRectangle;connectable=0;fillColor=none;top=0;left=0;bottom=0;right=0;editable=1;overflow=hidden;whiteSpace=wrap;html=1;strokeColor=#0F8B8D;fontColor=#143642;" vertex="1" parent="wksBsVy8olKyLcgHj2rm-103">
          <mxGeometry width="30" height="30" as="geometry">
            <mxRectangle width="30" height="30" as="alternateBounds" />
          </mxGeometry>
        </mxCell>
        <mxCell id="wksBsVy8olKyLcgHj2rm-105" value="Driving License" style="shape=partialRectangle;connectable=0;fillColor=none;top=0;left=0;bottom=0;right=0;align=left;spacingLeft=6;overflow=hidden;whiteSpace=wrap;html=1;strokeColor=#0F8B8D;fontColor=#143642;" vertex="1" parent="wksBsVy8olKyLcgHj2rm-103">
          <mxGeometry x="30" width="150" height="30" as="geometry">
            <mxRectangle width="150" height="30" as="alternateBounds" />
          </mxGeometry>
        </mxCell>
        <mxCell id="wksBsVy8olKyLcgHj2rm-106" value="" style="shape=tableRow;horizontal=0;startSize=0;swimlaneHead=0;swimlaneBody=0;fillColor=none;collapsible=0;dropTarget=0;points=[[0,0.5],[1,0.5]];portConstraint=eastwest;top=0;left=0;right=0;bottom=0;strokeColor=#0F8B8D;fontColor=#143642;" vertex="1" parent="wksBsVy8olKyLcgHj2rm-99">
          <mxGeometry y="90" width="180" height="30" as="geometry" />
        </mxCell>
        <mxCell id="wksBsVy8olKyLcgHj2rm-107" value="" style="shape=partialRectangle;connectable=0;fillColor=none;top=0;left=0;bottom=0;right=0;editable=1;overflow=hidden;whiteSpace=wrap;html=1;strokeColor=#0F8B8D;fontColor=#143642;" vertex="1" parent="wksBsVy8olKyLcgHj2rm-106">
          <mxGeometry width="30" height="30" as="geometry">
            <mxRectangle width="30" height="30" as="alternateBounds" />
          </mxGeometry>
        </mxCell>
        <mxCell id="wksBsVy8olKyLcgHj2rm-108" value="Phone" style="shape=partialRectangle;connectable=0;fillColor=none;top=0;left=0;bottom=0;right=0;align=left;spacingLeft=6;overflow=hidden;whiteSpace=wrap;html=1;strokeColor=#0F8B8D;fontColor=#143642;" vertex="1" parent="wksBsVy8olKyLcgHj2rm-106">
          <mxGeometry x="30" width="150" height="30" as="geometry">
            <mxRectangle width="150" height="30" as="alternateBounds" />
          </mxGeometry>
        </mxCell>
        <mxCell id="wksBsVy8olKyLcgHj2rm-246" value="Car" style="shape=ext;margin=3;double=1;whiteSpace=wrap;html=1;align=center;strokeColor=#0F8B8D;fontColor=#143642;fillColor=#FAE5C7;" vertex="1" parent="ZMFAi1i5mtqEm44oEGKB-1">
          <mxGeometry x="-850" y="520" width="117" height="50" as="geometry" />
        </mxCell>
        <mxCell id="ZMFAi1i5mtqEm44oEGKB-21" value="" style="edgeStyle=orthogonalEdgeStyle;rounded=1;orthogonalLoop=1;jettySize=auto;html=1;exitX=0.25;exitY=0;exitDx=0;exitDy=0;labelBackgroundColor=none;strokeColor=#A8201A;fontColor=default;curved=0;endArrow=none;endFill=0;" edge="1" parent="ZMFAi1i5mtqEm44oEGKB-1" source="wksBsVy8olKyLcgHj2rm-246" target="ZMFAi1i5mtqEm44oEGKB-25">
          <mxGeometry relative="1" as="geometry">
            <mxPoint x="-810" y="510" as="sourcePoint" />
          </mxGeometry>
        </mxCell>
        <mxCell id="ZMFAi1i5mtqEm44oEGKB-22" style="edgeStyle=orthogonalEdgeStyle;rounded=1;orthogonalLoop=1;jettySize=auto;html=1;entryX=0.5;entryY=1;entryDx=0;entryDy=0;labelBackgroundColor=none;strokeColor=#A8201A;fontColor=default;curved=0;endArrow=none;endFill=0;exitX=0.5;exitY=0;exitDx=0;exitDy=0;" edge="1" parent="ZMFAi1i5mtqEm44oEGKB-1" source="wksBsVy8olKyLcgHj2rm-246" target="ZMFAi1i5mtqEm44oEGKB-28">
          <mxGeometry relative="1" as="geometry">
            <mxPoint x="-779.9999999999998" y="510" as="sourcePoint" />
          </mxGeometry>
        </mxCell>
        <mxCell id="ZMFAi1i5mtqEm44oEGKB-23" style="edgeStyle=orthogonalEdgeStyle;rounded=1;orthogonalLoop=1;jettySize=auto;html=1;entryX=0;entryY=1;entryDx=0;entryDy=0;labelBackgroundColor=none;strokeColor=#A8201A;fontColor=default;curved=0;endArrow=none;endFill=0;exitX=1;exitY=0.5;exitDx=0;exitDy=0;" edge="1" parent="ZMFAi1i5mtqEm44oEGKB-1" source="wksBsVy8olKyLcgHj2rm-246" target="ZMFAi1i5mtqEm44oEGKB-33">
          <mxGeometry relative="1" as="geometry">
            <mxPoint x="-720" y="540.0434782608695" as="sourcePoint" />
            <Array as="points">
              <mxPoint x="-733" y="540" />
              <mxPoint x="-592" y="540" />
            </Array>
          </mxGeometry>
        </mxCell>
        <mxCell id="ZMFAi1i5mtqEm44oEGKB-25" value="&lt;u&gt;&lt;b&gt;&lt;font style=&quot;font-size: 14px;&quot;&gt;ID&lt;/font&gt;&lt;/b&gt;&lt;/u&gt;" style="ellipse;whiteSpace=wrap;html=1;rounded=0;labelBackgroundColor=none;fillColor=#FAE5C7;strokeColor=#0F8B8D;fontColor=#143642;" vertex="1" parent="ZMFAi1i5mtqEm44oEGKB-1">
          <mxGeometry x="-857" y="420" width="40" height="40" as="geometry" />
        </mxCell>
        <mxCell id="ZMFAi1i5mtqEm44oEGKB-26" style="edgeStyle=orthogonalEdgeStyle;rounded=1;orthogonalLoop=1;jettySize=auto;html=1;exitX=1;exitY=0;exitDx=0;exitDy=0;entryX=0.5;entryY=1;entryDx=0;entryDy=0;labelBackgroundColor=none;strokeColor=#A8201A;fontColor=default;curved=0;endArrow=none;endFill=0;" edge="1" parent="ZMFAi1i5mtqEm44oEGKB-1" source="ZMFAi1i5mtqEm44oEGKB-28" target="ZMFAi1i5mtqEm44oEGKB-35">
          <mxGeometry relative="1" as="geometry" />
        </mxCell>
        <mxCell id="ZMFAi1i5mtqEm44oEGKB-27" style="edgeStyle=orthogonalEdgeStyle;rounded=1;orthogonalLoop=1;jettySize=auto;html=1;exitX=0.5;exitY=0;exitDx=0;exitDy=0;labelBackgroundColor=none;strokeColor=#A8201A;fontColor=default;curved=0;endArrow=none;endFill=0;" edge="1" parent="ZMFAi1i5mtqEm44oEGKB-1" source="ZMFAi1i5mtqEm44oEGKB-28" target="ZMFAi1i5mtqEm44oEGKB-36">
          <mxGeometry relative="1" as="geometry" />
        </mxCell>
        <mxCell id="ZMFAi1i5mtqEm44oEGKB-28" value="&lt;font style=&quot;font-size: 10px;&quot;&gt;Model&lt;/font&gt;" style="ellipse;whiteSpace=wrap;html=1;rounded=0;labelBackgroundColor=none;fillColor=#FAE5C7;strokeColor=#0F8B8D;fontColor=#143642;" vertex="1" parent="ZMFAi1i5mtqEm44oEGKB-1">
          <mxGeometry x="-797" y="410" width="50" height="40" as="geometry" />
        </mxCell>
        <mxCell id="ZMFAi1i5mtqEm44oEGKB-29" value="&lt;span style=&quot;font-size: 10px;&quot;&gt;License Img&lt;/span&gt;" style="ellipse;whiteSpace=wrap;html=1;rounded=0;labelBackgroundColor=none;fillColor=#FAE5C7;strokeColor=#0F8B8D;fontColor=#143642;" vertex="1" parent="ZMFAi1i5mtqEm44oEGKB-1">
          <mxGeometry x="-733" y="410" width="66" height="40" as="geometry" />
        </mxCell>
        <mxCell id="ZMFAi1i5mtqEm44oEGKB-30" style="edgeStyle=orthogonalEdgeStyle;rounded=1;orthogonalLoop=1;jettySize=auto;html=1;entryX=0.545;entryY=1;entryDx=0;entryDy=0;entryPerimeter=0;exitX=0.75;exitY=0;exitDx=0;exitDy=0;labelBackgroundColor=none;strokeColor=#A8201A;fontColor=default;curved=0;endArrow=none;endFill=0;" edge="1" parent="ZMFAi1i5mtqEm44oEGKB-1" source="wksBsVy8olKyLcgHj2rm-246" target="ZMFAi1i5mtqEm44oEGKB-29">
          <mxGeometry relative="1" as="geometry">
            <Array as="points">
              <mxPoint x="-752" y="520" />
              <mxPoint x="-752" y="517" />
              <mxPoint x="-742" y="517" />
              <mxPoint x="-742" y="470" />
              <mxPoint x="-697" y="470" />
            </Array>
            <mxPoint x="-750" y="510" as="sourcePoint" />
          </mxGeometry>
        </mxCell>
        <mxCell id="ZMFAi1i5mtqEm44oEGKB-31" value="Rent Value" style="ellipse;whiteSpace=wrap;html=1;rounded=0;labelBackgroundColor=none;fillColor=#FAE5C7;strokeColor=#0F8B8D;fontColor=#143642;" vertex="1" parent="ZMFAi1i5mtqEm44oEGKB-1">
          <mxGeometry x="-673" y="440" width="66" height="40" as="geometry" />
        </mxCell>
        <mxCell id="ZMFAi1i5mtqEm44oEGKB-32" style="edgeStyle=orthogonalEdgeStyle;rounded=1;orthogonalLoop=1;jettySize=auto;html=1;exitX=1;exitY=0.25;exitDx=0;exitDy=0;labelBackgroundColor=none;strokeColor=#A8201A;fontColor=default;curved=0;endArrow=none;endFill=0;" edge="1" parent="ZMFAi1i5mtqEm44oEGKB-1" source="wksBsVy8olKyLcgHj2rm-246" target="ZMFAi1i5mtqEm44oEGKB-31">
          <mxGeometry relative="1" as="geometry">
            <mxPoint x="-720" y="525" as="sourcePoint" />
          </mxGeometry>
        </mxCell>
        <mxCell id="ZMFAi1i5mtqEm44oEGKB-33" value="Status&lt;span style=&quot;color: rgba(0, 0, 0, 0); font-family: monospace; font-size: 0px; text-align: start; text-wrap: nowrap;&quot;&gt;%3CmxGraphModel%3E%3Croot%3E%3CmxCell%20id%3D%220%22%2F%3E%3CmxCell%20id%3D%221%22%20parent%3D%220%22%2F%3E%3CmxCell%20id%3D%222%22%20value%3D%22Rent%20Value%22%20style%3D%22ellipse%3BwhiteSpace%3Dwrap%3Bhtml%3D1%3Brounded%3D0%3B%22%20vertex%3D%221%22%20parent%3D%221%22%3E%3CmxGeometry%20x%3D%22379%22%20y%3D%22440%22%20width%3D%2266%22%20height%3D%2240%22%20as%3D%22geometry%22%2F%3E%3C%2FmxCell%3E%3C%2Froot%3E%3C%2FmxGraphModel%3E&lt;/span&gt;" style="ellipse;whiteSpace=wrap;html=1;rounded=0;labelBackgroundColor=none;fillColor=#FAE5C7;strokeColor=#0F8B8D;fontColor=#143642;" vertex="1" parent="ZMFAi1i5mtqEm44oEGKB-1">
          <mxGeometry x="-602" y="490" width="66" height="40" as="geometry" />
        </mxCell>
        <mxCell id="ZMFAi1i5mtqEm44oEGKB-34" value="Brand" style="ellipse;whiteSpace=wrap;html=1;rounded=0;labelBackgroundColor=none;fillColor=#FAE5C7;strokeColor=#0F8B8D;fontColor=#143642;" vertex="1" parent="ZMFAi1i5mtqEm44oEGKB-1">
          <mxGeometry x="-870" y="330" width="66" height="40" as="geometry" />
        </mxCell>
        <mxCell id="ZMFAi1i5mtqEm44oEGKB-35" value="&lt;font style=&quot;font-size: 10px;&quot;&gt;Model Name&lt;/font&gt;" style="ellipse;whiteSpace=wrap;html=1;rounded=0;labelBackgroundColor=none;fillColor=#FAE5C7;strokeColor=#0F8B8D;fontColor=#143642;" vertex="1" parent="ZMFAi1i5mtqEm44oEGKB-1">
          <mxGeometry x="-747" y="330" width="66" height="40" as="geometry" />
        </mxCell>
        <mxCell id="ZMFAi1i5mtqEm44oEGKB-36" value="&lt;font style=&quot;font-size: 10px;&quot;&gt;Model Year&lt;/font&gt;" style="ellipse;whiteSpace=wrap;html=1;rounded=0;labelBackgroundColor=none;fillColor=#FAE5C7;strokeColor=#0F8B8D;fontColor=#143642;" vertex="1" parent="ZMFAi1i5mtqEm44oEGKB-1">
          <mxGeometry x="-805" y="290" width="66" height="40" as="geometry" />
        </mxCell>
        <mxCell id="ZMFAi1i5mtqEm44oEGKB-37" style="edgeStyle=orthogonalEdgeStyle;rounded=1;orthogonalLoop=1;jettySize=auto;html=1;exitX=0;exitY=0;exitDx=0;exitDy=0;entryX=0.5;entryY=1;entryDx=0;entryDy=0;labelBackgroundColor=none;strokeColor=#A8201A;fontColor=default;curved=0;endArrow=none;endFill=0;" edge="1" parent="ZMFAi1i5mtqEm44oEGKB-1" source="ZMFAi1i5mtqEm44oEGKB-28" target="ZMFAi1i5mtqEm44oEGKB-34">
          <mxGeometry relative="1" as="geometry">
            <Array as="points">
              <mxPoint x="-789" y="400" />
              <mxPoint x="-837" y="400" />
            </Array>
          </mxGeometry>
        </mxCell>
        <mxCell id="ZMFAi1i5mtqEm44oEGKB-38" value="&lt;b&gt;M&lt;/b&gt;" style="edgeLabel;html=1;align=center;verticalAlign=middle;resizable=0;points=[];strokeColor=#0F8B8D;fontColor=#143642;fillColor=#FAE5C7;" vertex="1" connectable="0" parent="ZMFAi1i5mtqEm44oEGKB-1">
          <mxGeometry x="-273" y="591.4347826086957" as="geometry">
            <mxPoint x="-508" y="-12" as="offset" />
          </mxGeometry>
        </mxCell>
        <mxCell id="wksBsVy8olKyLcgHj2rm-247" value="&lt;span style=&quot;font-size: 14px;&quot;&gt;Rent&lt;/span&gt;" style="shape=rhombus;double=1;perimeter=rhombusPerimeter;whiteSpace=wrap;html=1;align=center;strokeColor=#0F8B8D;fontColor=#143642;fillColor=#FAE5C7;" vertex="1" parent="ZMFAi1i5mtqEm44oEGKB-1">
          <mxGeometry x="-990" y="420" width="70" height="70" as="geometry" />
        </mxCell>
        <mxCell id="wksBsVy8olKyLcgHj2rm-248" value="" style="endArrow=classic;html=1;rounded=0;strokeColor=#A8201A;fontColor=#143642;fillColor=#FAE5C7;entryX=0;entryY=0.5;entryDx=0;entryDy=0;exitX=0;exitY=0.5;exitDx=0;exitDy=0;curved=1;" edge="1" parent="ZMFAi1i5mtqEm44oEGKB-1" source="wksBsVy8olKyLcgHj2rm-87" target="wksBsVy8olKyLcgHj2rm-230">
          <mxGeometry width="50" height="50" relative="1" as="geometry">
            <mxPoint x="100" y="200" as="sourcePoint" />
            <mxPoint x="100" y="610" as="targetPoint" />
            <Array as="points">
              <mxPoint x="80" y="400" />
            </Array>
          </mxGeometry>
        </mxCell>
        <mxCell id="wksBsVy8olKyLcgHj2rm-254" value="" style="endArrow=classic;html=1;rounded=0;strokeColor=#A8201A;fontColor=#143642;fillColor=#FAE5C7;exitX=0;exitY=0.5;exitDx=0;exitDy=0;entryX=1;entryY=0.5;entryDx=0;entryDy=0;curved=1;" edge="1" parent="ZMFAi1i5mtqEm44oEGKB-1" source="wksBsVy8olKyLcgHj2rm-113" target="wksBsVy8olKyLcgHj2rm-250">
          <mxGeometry width="50" height="50" relative="1" as="geometry">
            <mxPoint x="430" y="270" as="sourcePoint" />
            <mxPoint x="380" y="320" as="targetPoint" />
            <Array as="points">
              <mxPoint x="420" y="260" />
            </Array>
          </mxGeometry>
        </mxCell>
        <mxCell id="wksBsVy8olKyLcgHj2rm-255" value="Car_Tenant" style="shape=table;startSize=30;container=1;collapsible=1;childLayout=tableLayout;fixedRows=1;rowLines=0;fontStyle=1;align=center;resizeLast=1;html=1;strokeColor=#0F8B8D;fontColor=#143642;fillColor=#FAE5C7;swimlaneLine=1;columnLines=1;top=1;bottom=1;left=1;right=1;" vertex="1" parent="ZMFAi1i5mtqEm44oEGKB-1">
          <mxGeometry x="430" y="630" width="210" height="90" as="geometry" />
        </mxCell>
        <mxCell id="wksBsVy8olKyLcgHj2rm-259" value="" style="shape=tableRow;horizontal=0;startSize=0;swimlaneHead=0;swimlaneBody=0;fillColor=none;collapsible=0;dropTarget=0;points=[[0,0.5],[1,0.5]];portConstraint=eastwest;top=0;left=0;right=0;bottom=0;strokeColor=#0F8B8D;fontColor=#143642;" vertex="1" parent="wksBsVy8olKyLcgHj2rm-255">
          <mxGeometry y="30" width="210" height="30" as="geometry" />
        </mxCell>
        <mxCell id="wksBsVy8olKyLcgHj2rm-266" value="PK" style="shape=partialRectangle;connectable=0;fillColor=none;top=0;left=0;bottom=0;right=0;editable=1;overflow=hidden;whiteSpace=wrap;html=1;strokeColor=#0F8B8D;fontColor=#143642;rowspan=2;colspan=1;" vertex="1" parent="wksBsVy8olKyLcgHj2rm-259">
          <mxGeometry width="30" height="60" as="geometry">
            <mxRectangle width="30" height="30" as="alternateBounds" />
          </mxGeometry>
        </mxCell>
        <mxCell id="wksBsVy8olKyLcgHj2rm-260" value="&lt;span style=&quot;font-weight: 700;&quot;&gt;FK&lt;/span&gt;" style="shape=partialRectangle;connectable=0;fillColor=none;top=0;left=0;bottom=0;right=0;editable=1;overflow=hidden;whiteSpace=wrap;html=1;strokeColor=#0F8B8D;fontColor=#143642;" vertex="1" parent="wksBsVy8olKyLcgHj2rm-259">
          <mxGeometry x="30" width="30" height="30" as="geometry">
            <mxRectangle width="30" height="30" as="alternateBounds" />
          </mxGeometry>
        </mxCell>
        <mxCell id="wksBsVy8olKyLcgHj2rm-261" value="Car_ID" style="shape=partialRectangle;connectable=0;fillColor=none;top=0;left=0;bottom=0;right=0;align=left;spacingLeft=6;overflow=hidden;whiteSpace=wrap;html=1;strokeColor=#0F8B8D;fontColor=#143642;" vertex="1" parent="wksBsVy8olKyLcgHj2rm-259">
          <mxGeometry x="60" width="150" height="30" as="geometry">
            <mxRectangle width="150" height="30" as="alternateBounds" />
          </mxGeometry>
        </mxCell>
        <mxCell id="wksBsVy8olKyLcgHj2rm-262" value="" style="shape=tableRow;horizontal=0;startSize=0;swimlaneHead=0;swimlaneBody=0;fillColor=none;collapsible=0;dropTarget=0;points=[[0,0.5],[1,0.5]];portConstraint=eastwest;top=0;left=0;right=0;bottom=0;strokeColor=#0F8B8D;fontColor=#143642;" vertex="1" parent="wksBsVy8olKyLcgHj2rm-255">
          <mxGeometry y="60" width="210" height="30" as="geometry" />
        </mxCell>
        <mxCell id="wksBsVy8olKyLcgHj2rm-267" style="shape=partialRectangle;connectable=0;fillColor=none;top=0;left=0;bottom=0;right=0;editable=1;overflow=hidden;whiteSpace=wrap;html=1;strokeColor=#0F8B8D;fontColor=#143642;" vertex="1" visible="0" parent="wksBsVy8olKyLcgHj2rm-262">
          <mxGeometry width="30" height="30" as="geometry">
            <mxRectangle width="30" height="30" as="alternateBounds" />
          </mxGeometry>
        </mxCell>
        <mxCell id="wksBsVy8olKyLcgHj2rm-263" value="&lt;b&gt;FK&lt;/b&gt;" style="shape=partialRectangle;connectable=0;fillColor=none;top=0;left=0;bottom=0;right=0;editable=1;overflow=hidden;whiteSpace=wrap;html=1;strokeColor=#0F8B8D;fontColor=#143642;" vertex="1" parent="wksBsVy8olKyLcgHj2rm-262">
          <mxGeometry x="30" width="30" height="30" as="geometry">
            <mxRectangle width="30" height="30" as="alternateBounds" />
          </mxGeometry>
        </mxCell>
        <mxCell id="wksBsVy8olKyLcgHj2rm-264" value="Tenant_SSN" style="shape=partialRectangle;connectable=0;fillColor=none;top=0;left=0;bottom=0;right=0;align=left;spacingLeft=6;overflow=hidden;whiteSpace=wrap;html=1;strokeColor=#0F8B8D;fontColor=#143642;" vertex="1" parent="wksBsVy8olKyLcgHj2rm-262">
          <mxGeometry x="60" width="150" height="30" as="geometry">
            <mxRectangle width="150" height="30" as="alternateBounds" />
          </mxGeometry>
        </mxCell>
        <mxCell id="wksBsVy8olKyLcgHj2rm-268" value="" style="endArrow=classic;html=1;rounded=0;strokeColor=#A8201A;fontColor=#143642;fillColor=#FAE5C7;entryX=0;entryY=0.5;entryDx=0;entryDy=0;exitX=0;exitY=0.5;exitDx=0;exitDy=0;curved=1;" edge="1" parent="ZMFAi1i5mtqEm44oEGKB-1" source="wksBsVy8olKyLcgHj2rm-100" target="wksBsVy8olKyLcgHj2rm-259">
          <mxGeometry width="50" height="50" relative="1" as="geometry">
            <mxPoint x="360" y="570" as="sourcePoint" />
            <mxPoint x="404" y="675" as="targetPoint" />
            <Array as="points">
              <mxPoint x="340" y="540" />
            </Array>
          </mxGeometry>
        </mxCell>
        <mxCell id="wksBsVy8olKyLcgHj2rm-270" value="" style="endArrow=classic;html=1;rounded=0;strokeColor=#A8201A;fontColor=#143642;fillColor=#FAE5C7;exitX=1;exitY=0.5;exitDx=0;exitDy=0;entryX=0;entryY=0.5;entryDx=0;entryDy=0;curved=1;" edge="1" parent="ZMFAi1i5mtqEm44oEGKB-1" source="wksBsVy8olKyLcgHj2rm-126" target="wksBsVy8olKyLcgHj2rm-262">
          <mxGeometry width="50" height="50" relative="1" as="geometry">
            <mxPoint x="340" y="580" as="sourcePoint" />
            <mxPoint x="320" y="720" as="targetPoint" />
            <Array as="points">
              <mxPoint x="340" y="570" />
            </Array>
          </mxGeometry>
        </mxCell>
      </root>
    </mxGraphModel>
  </diagram>
</mxfile>
